<svg xmlns="http://www.w3.org/2000/svg" viewBox="0 0 174.99 139.77"><defs><style>.cls-1{fill:#117369;}.cls-2{fill:#12403b;}.cls-3{font-size:21.48px;fill:#231f20;font-family:Avenir-Black, Avenir;font-weight:800;}</style></defs><g id="Layer_2" data-name="Layer 2"><g id="Layer_1-2" data-name="Layer 1"><path class="cls-1" d="M91.57.09A2.8,2.8,0,0,1,92,0c5.93,0,11.86-.08,17.78.18a30,30,0,0,1,20.14,9A31,31,0,0,1,139.38,29a31.87,31.87,0,0,1-26,34.67,52.57,52.57,0,0,1-7.94.6c-4.24.09-8.47,0-12.71,0H91.57Z"/><path class="cls-2" d="M172.9.58V85.91H143.37V79.66c0-.34,0-.69,0-1q0-14.91,0-29.83,0-16.08,0-32.18c0-5.05.05-10.1.05-15.15,0-.73.14-1,1-1q14,.09,28,.13C172.61.55,172.76.57,172.9.58Z"/><path class="cls-1" d="M2,.22H31.05V85.55H30l-24.48,0c-.94,0-1.89-.09-2.82-.07-.71,0-.91-.23-.91-.93,0-6.37,0-12.73,0-19.1,0-.19,0-.38,0-.56l.09-41Q2,12.88,2,1.92Z"/><path class="cls-1" d="M62.16,85.36V0h1.17c8.13,0,16.26,0,24.39,0,.93,0,1.14.28,1.14,1.17q0,28.46,0,56.93,0,13,0,26c0,1.32,0,1.32-1.35,1.32l-24.3,0Z"/><path class="cls-2" d="M59.42,83.36,56.76,80Q45.56,65.79,34.37,51.54a2.48,2.48,0,0,1-.53-1.42q0-23.05,0-46.11V3.18c.27.28.44.44.58.61q12.18,15.49,24.37,31a2.82,2.82,0,0,1,.66,1.87q0,22.77,0,45.55Z"/><text class="cls-3" transform="translate(0 117.89)">NEW PLAN, INC.</text><rect class="cls-1" x="1.28" y="136.08" width="87.22" height="3.69"/><rect class="cls-2" x="87.5" y="136.08" width="87.22" height="3.69"/></g></g></svg>