<svg xmlns="http://www.w3.org/2000/svg" xmlns:xlink="http://www.w3.org/1999/xlink" viewBox="0 0 835.37 513.99"><defs><style>.cls-1,.cls-2{fill:#0045ab;stroke:#000;stroke-miterlimit:10;}.cls-2{stroke-width:0.5px;}.cls-3{fill:url(#linear-gradient);}.cls-4{fill:url(#linear-gradient-2);}.cls-5{fill:url(#linear-gradient-3);}.cls-6{fill:url(#linear-gradient-4);}.cls-7{fill:url(#linear-gradient-5);}.cls-8{fill:url(#linear-gradient-6);}.cls-9{fill:url(#linear-gradient-7);}.cls-10{fill:url(#linear-gradient-8);}.cls-11{fill:url(#linear-gradient-9);}.cls-12{fill:url(#linear-gradient-10);}.cls-13{fill:url(#linear-gradient-11);}.cls-14{fill:#fff;}</style><linearGradient id="linear-gradient" x1="44.13" y1="429.41" x2="44.13" y2="321.16" gradientUnits="userSpaceOnUse"><stop offset="0" stop-color="#fff"/><stop offset="0.97" stop-color="#c4c4c4"/></linearGradient><linearGradient id="linear-gradient-2" x1="129.83" y1="428.75" x2="129.83" y2="352.97" xlink:href="#linear-gradient"/><linearGradient id="linear-gradient-3" x1="197.63" y1="428.83" x2="197.63" y2="352.9" xlink:href="#linear-gradient"/><linearGradient id="linear-gradient-4" x1="269.66" y1="428.75" x2="269.66" y2="352.97" xlink:href="#linear-gradient"/><linearGradient id="linear-gradient-5" x1="387.57" y1="426.93" x2="387.57" y2="323.43" xlink:href="#linear-gradient"/><linearGradient id="linear-gradient-6" x1="470.97" y1="428.83" x2="470.97" y2="352.97" xlink:href="#linear-gradient"/><linearGradient id="linear-gradient-7" x1="550.69" y1="459.31" x2="550.69" y2="351.07" xlink:href="#linear-gradient"/><linearGradient id="linear-gradient-8" x1="631.98" y1="428.75" x2="631.98" y2="354.13" xlink:href="#linear-gradient"/><linearGradient id="linear-gradient-9" x1="697.12" y1="426.93" x2="697.12" y2="316.42" xlink:href="#linear-gradient"/><linearGradient id="linear-gradient-10" x1="738.8" y1="426.93" x2="738.8" y2="314.02" xlink:href="#linear-gradient"/><linearGradient id="linear-gradient-11" x1="801.6" y1="428.75" x2="801.6" y2="352.97" xlink:href="#linear-gradient"/></defs><g id="Layer_2" data-name="Layer 2"><g id="Layer_1-2" data-name="Layer 1"><path class="cls-1" d="M408.43,274.77S414,257,406.1,229.5C401,211.94,379.42,136.07,371,114.59s-17.3-40.28-17.3-40.28-8.11-8.63-8.11,0c0,17.26,1.82,22.39,7.56,45.76s26.09,104.44,29.67,117.08C389.16,259.46,403.36,273.71,408.43,274.77Z"/><path class="cls-2" d="M421.16,278.07s13.35-12.49,19.56-40.43c4-17.87,23.29-98.31,26.25-121.33L473.07,69s-.44-16.22-7-4.25-11,23.75-17.14,47-28.12,105.85-31.05,118.66C412.7,253,417.28,274.5,421.16,278.07Z"/><path class="cls-2" d="M444.52,257.48s20.35-4,38.82-25.17c11.81-13.53,66.25-73.7,79.59-92.23l27.45-38.15s7.2-14.35-4.13-7.31-20.67,15-36.91,32.15-74,77.77-82.52,87.44C451.74,231.28,442.81,252.37,444.52,257.48Z"/><path class="cls-2" d="M431.23,281.91s21.76,7,50.73-1.81c18.54-5.63,102.79-29.66,125.42-38.82L654,222.41s14.52-8.71-.14-8.45-27.88,2.39-52.56,8.82S488.88,252,475.54,256C452,263,432.27,276.6,431.23,281.91Z"/><path class="cls-2" d="M404.15,281.91s-21.76,7-50.74-1.81c-18.53-5.63-102.78-29.66-125.42-38.82L181.4,222.41s-14.51-8.71.14-8.45,27.88,2.39,52.57,8.82S346.49,252,359.83,256C383.38,263,403.11,276.6,404.15,281.91Z"/><path class="cls-2" d="M446.42,232.44s19.89-17.1,34-41.66c9-15.71,51.08-86,60.67-106.9L560.84,40.8s4.36-15.57-5.42-6.32-17.43,19-30.13,39.16-58.86,91-64.45,102.81C447.86,203.91,443.78,227.78,446.42,232.44Z"/><path class="cls-2" d="M378,235.42s-3.62-26.71-16.32-52.11C353.53,167.06,318.05,92.92,306,73.47l-24.89-40s-10.43-12-8,1.6,6.49,25.5,16.31,47.32,43.68,100,50.41,111.11C355.48,219.35,372.82,235.38,378,235.42Z"/><path class="cls-2" d="M378,256.14s-20.68,1-43.32-15.06c-14.47-10.3-80.71-55.62-97.77-70.42l-35.11-30.44s-10.18-12.22,2.4-8.12,23.42,9.63,43,22.32,89.12,57.71,99.56,65C365.17,232.41,378.5,250.75,378,256.14Z"/><path class="cls-2" d="M475.19,251.24s20.69,1,43.32-15.06c14.48-10.3,80.71-55.62,97.77-70.41l35.12-30.45s10.17-12.22-2.41-8.12-23.42,9.63-43,22.32-89.13,57.71-99.57,65C488,227.51,474.66,245.85,475.19,251.24Z"/><path class="cls-2" d="M413.74,223.91s9.71-15.76,8.63-44.43C421.68,161.14,420,78.2,417,55.19L410.88,7.83S406.36-7.69,403,5.68s-4.58,26-4.64,50.09-.33,109.88.09,123.06C399.24,202.09,409.09,221.54,413.74,223.91Z"/><path class="cls-3" d="M47,429.41a44.55,44.55,0,0,1-17.75-3.65,45.52,45.52,0,0,1-15-10.51A51.27,51.27,0,0,1,3.86,398.5,61,61,0,0,1,0,376.2a63.68,63.68,0,0,1,3.79-22.52,52.75,52.75,0,0,1,10.5-17.41A46.09,46.09,0,0,1,30,325.11a47.72,47.72,0,0,1,19.31-3.95,47.38,47.38,0,0,1,13.85,1.9,51.47,51.47,0,0,1,11.8,5.33l3-5h5.84l.65,36.9h-6a86.74,86.74,0,0,0-3.5-11.7,45,45,0,0,0-5.46-10.69,26.71,26.71,0,0,0-8.3-7.77,21.47,21.47,0,0,0-11-2.81A28.31,28.31,0,0,0,37,330.5a30,30,0,0,0-10.52,9.28,45.6,45.6,0,0,0-6.63,15,80.16,80.16,0,0,0-2.41,20.37A62.33,62.33,0,0,0,20,393.39,47,47,0,0,0,27.13,408a34.52,34.52,0,0,0,11,9.72,29.15,29.15,0,0,0,14.25,3.5,30.41,30.41,0,0,0,10.85-1.87,29,29,0,0,0,8.6-4.92,38.22,38.22,0,0,0,6.41-7.29,40.26,40.26,0,0,0,4.52-8.9l5.47,2.63q-6.27,15.39-16.62,22T47,429.41Z"/><path class="cls-4" d="M163.6,425.61c-2.28.83-4.29,1.5-6,2a20.77,20.77,0,0,1-5.87.77c-3.8,0-6.82-.89-9.08-2.67A12.26,12.26,0,0,1,138.3,418h-.44a35.4,35.4,0,0,1-10.18,8,28.47,28.47,0,0,1-13.09,2.77,18.5,18.5,0,0,1-13.31-5q-5.22-5-5.22-13a22,22,0,0,1,1.17-7.44,17.9,17.9,0,0,1,3.5-5.91,17.43,17.43,0,0,1,4.82-3.9,42.14,42.14,0,0,1,5.61-2.74c2.19-.82,6.63-2.36,13.32-4.59A100.69,100.69,0,0,0,138,381v-7.23a29.93,29.93,0,0,0-.4-3.64,15.27,15.27,0,0,0-1.71-5.11,14.66,14.66,0,0,0-4.12-4.7c-1.78-1.34-4.29-2-7.55-2a16.8,16.8,0,0,0-6.24,1.14,11.4,11.4,0,0,0-4,2.36,19.42,19.42,0,0,0,.7,4.3,22.45,22.45,0,0,1,.69,5.26A6.26,6.26,0,0,1,113,376a9.06,9.06,0,0,1-6.38,2.11,6,6,0,0,1-5.36-2.59,10.2,10.2,0,0,1,.65-12.21,23.59,23.59,0,0,1,6.17-5.47,33.74,33.74,0,0,1,8-3.47,31.12,31.12,0,0,1,9.12-1.42,60.64,60.64,0,0,1,10.68.83,19.75,19.75,0,0,1,8.28,3.62,16.82,16.82,0,0,1,5.65,7.33,31.22,31.22,0,0,1,1.94,11.92q0,10.43-.22,18.49t-.22,17.62a9,9,0,0,0,1,4.52,8,8,0,0,0,3,2.84,7.33,7.33,0,0,0,3.47.73c1.57.05,3.19.08,4.84.08ZM138.15,387.1q-6.19,1.83-10.87,3.59a44.41,44.41,0,0,0-8.68,4.38,19.78,19.78,0,0,0-5.76,5.89,14.93,14.93,0,0,0-2.11,8.07q0,6.08,3.17,8.92A11.59,11.59,0,0,0,122,420.8a16.51,16.51,0,0,0,9.11-2.52,26.5,26.5,0,0,0,6.64-6Z"/><path class="cls-5" d="M218.24,391.7a18.45,18.45,0,0,1,4.59,6.05,19.71,19.71,0,0,1,1.61,8.39A20.47,20.47,0,0,1,217,422.48q-7.49,6.34-19.37,6.35A29.08,29.08,0,0,1,186,426.56a31.92,31.92,0,0,1-7.55-4.15L177,427.15h-5.47l-.73-25h5a27.85,27.85,0,0,0,2.48,6.66,31.75,31.75,0,0,0,4.59,6.88,25.5,25.5,0,0,0,6.82,5.42,18.21,18.21,0,0,0,8.94,2.19q7,0,10.79-3.19t3.8-9.13a11,11,0,0,0-1.21-5.3,11.8,11.8,0,0,0-3.53-3.9,29,29,0,0,0-5.91-3c-2.34-.89-4.94-1.78-7.81-2.65a75.8,75.8,0,0,1-7.62-2.81,30.25,30.25,0,0,1-7.19-4.2,20.63,20.63,0,0,1-5.25-6.27,17.93,17.93,0,0,1-2-8.75,19.67,19.67,0,0,1,6.56-14.95q6.57-6.14,17.58-6.13a36.35,36.35,0,0,1,8.65,1.09,29.83,29.83,0,0,1,7.18,2.63l1.68-3.79h5.25l1.1,23.12h-5a23.24,23.24,0,0,0-6.6-12.64,17.2,17.2,0,0,0-12.36-4.87q-6,0-9.41,3a9.35,9.35,0,0,0-3.43,7.28,11.87,11.87,0,0,0,1.13,5.46A10.1,10.1,0,0,0,188.4,378a28.53,28.53,0,0,0,5.51,2.73c2.21.86,5,1.81,8.2,2.88a71.92,71.92,0,0,1,9.09,3.57A30,30,0,0,1,218.24,391.7Z"/><path class="cls-6" d="M303.43,425.61q-3.42,1.25-6,2a20.67,20.67,0,0,1-5.87.77q-5.69,0-9.08-2.67a12.26,12.26,0,0,1-4.34-7.77h-.44a35.49,35.49,0,0,1-10.17,8,28.5,28.5,0,0,1-13.09,2.77,18.5,18.5,0,0,1-13.31-5q-5.22-5-5.22-13a22,22,0,0,1,1.17-7.44,17.57,17.57,0,0,1,3.5-5.91,17.38,17.38,0,0,1,4.81-3.9,42.22,42.22,0,0,1,5.62-2.74c2.19-.82,6.62-2.36,13.31-4.59A101.57,101.57,0,0,0,277.83,381v-7.23a32.2,32.2,0,0,0-.4-3.64,15.29,15.29,0,0,0-1.72-5.11,14.54,14.54,0,0,0-4.12-4.7q-2.65-2-7.55-2a16.79,16.79,0,0,0-6.23,1.14,11.4,11.4,0,0,0-4.05,2.36,19.88,19.88,0,0,0,.69,4.3,22.45,22.45,0,0,1,.69,5.26,6.28,6.28,0,0,1-2.29,4.67,9.08,9.08,0,0,1-6.38,2.11,6,6,0,0,1-5.36-2.59,10.21,10.21,0,0,1-1.72-5.8,10.33,10.33,0,0,1,2.37-6.41,23.59,23.59,0,0,1,6.17-5.47,33.48,33.48,0,0,1,7.94-3.47A31.22,31.22,0,0,1,265,353a60.68,60.68,0,0,1,10.69.83,19.65,19.65,0,0,1,8.27,3.62,16.76,16.76,0,0,1,5.66,7.33,31.24,31.24,0,0,1,1.93,11.92q0,10.43-.22,18.49t-.22,17.62a8.89,8.89,0,0,0,1,4.52,7.88,7.88,0,0,0,3,2.84,7.28,7.28,0,0,0,3.46.73c1.58.05,3.2.08,4.85.08ZM278,387.1q-6.2,1.83-10.86,3.59a43.86,43.86,0,0,0-8.68,4.38,19.82,19.82,0,0,0-5.77,5.89,14.93,14.93,0,0,0-2.11,8.07q0,6.08,3.17,8.92a11.63,11.63,0,0,0,8.06,2.85,16.55,16.55,0,0,0,9.12-2.52,26.5,26.5,0,0,0,6.64-6Z"/><path class="cls-7" d="M432.68,351.51h-5a34.34,34.34,0,0,0-2.37-6.24,56.34,56.34,0,0,0-3.84-6.82,34.44,34.44,0,0,0-4.79-5.87,9.55,9.55,0,0,0-5-2.88q-2.26-.29-5.7-.44c-2.29-.1-4.41-.14-6.36-.14h-4.24v82.79a9.6,9.6,0,0,0,1,4.41,6.84,6.84,0,0,0,3.58,3.09,59.93,59.93,0,0,0,12,2.34v5.18H363.09v-5.18q2-.15,6.24-.58a24.21,24.21,0,0,0,5.8-1.1,7.12,7.12,0,0,0,3.54-2.73,8.92,8.92,0,0,0,1.13-4.78V329.12h-4.23c-1.51,0-3.38,0-5.62.11s-4.38.22-6.42.47a8.88,8.88,0,0,0-5,2.88,38.3,38.3,0,0,0-4.78,5.87,49.54,49.54,0,0,0-3.87,7,42.22,42.22,0,0,0-2.33,6.09h-5.11V323.43h90.23Z"/><path class="cls-8" d="M502.92,410a36.88,36.88,0,0,1-12.11,13.71,30.53,30.53,0,0,1-17.43,5.11,35.48,35.48,0,0,1-15.21-3.07,29.77,29.77,0,0,1-10.76-8.31,35.49,35.49,0,0,1-6.31-12.26,52,52,0,0,1-2.08-14.8,43.46,43.46,0,0,1,2.23-13.75,38.73,38.73,0,0,1,6.53-12.15,31.65,31.65,0,0,1,10.32-8.35A29.65,29.65,0,0,1,471.92,353a33.13,33.13,0,0,1,13.49,2.48,23.9,23.9,0,0,1,9.12,6.78,27.24,27.24,0,0,1,5,9.63,42.38,42.38,0,0,1,1.64,12v4.81H453.54a56.63,56.63,0,0,0,1.35,12.87,31,31,0,0,0,4.26,10.16,20.38,20.38,0,0,0,7.44,6.68,22.89,22.89,0,0,0,10.94,2.45,20.17,20.17,0,0,0,11.2-3c3.13-2,6.17-5.68,9.08-11ZM486.8,382.58a61,61,0,0,0-.69-8.72,27.13,27.13,0,0,0-2.23-7.79,14.78,14.78,0,0,0-4.59-5.45,12.58,12.58,0,0,0-7.52-2.11A15.65,15.65,0,0,0,459,364.87q-5.07,6.38-5.5,17.71Z"/><path class="cls-9" d="M590.15,459.31H551.2V454.5c1.51-.1,3-.22,4.45-.37a21.29,21.29,0,0,0,3.94-.73,4.92,4.92,0,0,0,3.14-2.56,9.89,9.89,0,0,0,.87-4.31V419.92l-.43-.14a27.14,27.14,0,0,1-3.32,3,22.63,22.63,0,0,1-4.47,2.8,33.45,33.45,0,0,1-5.61,2.38,23.53,23.53,0,0,1-6.78.84,28.65,28.65,0,0,1-12.35-2.74,29.84,29.84,0,0,1-10.08-7.77,36.66,36.66,0,0,1-6.81-12.22,48.25,48.25,0,0,1-2.52-15.93,37.46,37.46,0,0,1,2.92-15,39.57,39.57,0,0,1,7.72-11.78,34.22,34.22,0,0,1,11-7.55A31.94,31.94,0,0,1,545.7,353a35.55,35.55,0,0,1,8.42.91,34.43,34.43,0,0,1,6.3,2.15,28.39,28.39,0,0,1,4.53,2.45c1.5,1,2.57,1.66,3.2,2l6.23-9.48,4.18.59q-.3,5.4-.77,13.28c-.32,5.25-.47,9.86-.47,13.79V445.3a9.51,9.51,0,0,0,.95,4.42,6.07,6.07,0,0,0,3.06,2.81,25.11,25.11,0,0,0,4.45,1.28,42.67,42.67,0,0,0,4.37.69ZM563.6,413.58v-43a19,19,0,0,0-2-4.05,17.69,17.69,0,0,0-3.28-3.9,17.45,17.45,0,0,0-5-2.92,18.41,18.41,0,0,0-6.81-1.16q-8.52,0-14.3,8.82t-5.79,24.29a50.33,50.33,0,0,0,1.12,11.09,29,29,0,0,0,3.9,9.26,20.5,20.5,0,0,0,6.62,6.52A19.06,19.06,0,0,0,548.24,421a17.07,17.07,0,0,0,9-2.23A27.41,27.41,0,0,0,563.6,413.58Z"/><path class="cls-10" d="M671.91,425.61l-23.48,1.61-1.1-1v-9.12h-.43q-1.75,1.83-3.93,3.9a27.48,27.48,0,0,1-5,3.76,32.15,32.15,0,0,1-6.34,3,28.56,28.56,0,0,1-8.66,1q-9.54,0-14.53-6.23t-5-18.11V370a9,9,0,0,0-1-4.41,8.69,8.69,0,0,0-6.21-4.37,31.52,31.52,0,0,0-4.18-.55v-4.82l24-1.75,1.1,1v50q0,7.8,3.5,11.74A10.83,10.83,0,0,0,629,420.8a19.28,19.28,0,0,0,7.15-1.24,20.63,20.63,0,0,0,5.25-2.91,24.51,24.51,0,0,0,3.46-3.25,18.13,18.13,0,0,0,2.3-3.16V369.52a8.73,8.73,0,0,0-1-4.27,9.73,9.73,0,0,0-2.84-3.17,8.21,8.21,0,0,0-3.91-1.05q-2.59-.18-5.8-.33v-4.82l26.18-1.75,1.1,1v57.06a8.24,8.24,0,0,0,1,4.22,9.08,9.08,0,0,0,2.85,3,7.83,7.83,0,0,0,3.13,1.06,36.32,36.32,0,0,0,4,.33Z"/><path class="cls-11" d="M715.61,426.93H680.89v-4.82l3.47-.29a13.39,13.39,0,0,0,3.09-.58,5.23,5.23,0,0,0,3-2.3,8.14,8.14,0,0,0,1-4.26V370.32a8.8,8.8,0,0,0-1.05-4.27,9.52,9.52,0,0,0-3-3.24,13.47,13.47,0,0,0-4-1.49,30.36,30.36,0,0,0-4.81-.77v-4.81L704,354.13l1,1V413.8a8.33,8.33,0,0,0,1,4.23,5.77,5.77,0,0,0,3.08,2.48,24.87,24.87,0,0,0,3.11,1.06,19.34,19.34,0,0,0,3.41.54Zm-9.12-101.17a10.61,10.61,0,0,1-2.74,7.26,8.7,8.7,0,0,1-13.19.15,9.65,9.65,0,0,1-2.74-6.75,10,10,0,0,1,2.74-7,8.45,8.45,0,0,1,6.45-3,9,9,0,0,1,6.82,2.81A9.23,9.23,0,0,1,706.49,325.76Z"/><path class="cls-12" d="M758.2,426.93H723.12v-4.82c1.12-.09,2.31-.2,3.57-.32a17.49,17.49,0,0,0,3.14-.55,5.43,5.43,0,0,0,3.06-2.3,7.92,7.92,0,0,0,1-4.27V331.31a11,11,0,0,0-1.13-4.92,9.44,9.44,0,0,0-2.95-3.62,15.15,15.15,0,0,0-4.82-1.6,43.61,43.61,0,0,0-5.61-.88v-4.67l27.06-1.6,1,1.09V413.8a8.26,8.26,0,0,0,.95,4.2,6.07,6.07,0,0,0,3.06,2.51,17.11,17.11,0,0,0,3.18,1.09,21.51,21.51,0,0,0,3.53.51Z"/><path class="cls-13" d="M835.37,425.61q-3.42,1.25-6,2a20.67,20.67,0,0,1-5.87.77q-5.68,0-9.08-2.67a12.26,12.26,0,0,1-4.34-7.77h-.44a35.49,35.49,0,0,1-10.17,8,28.5,28.5,0,0,1-13.09,2.77,18.5,18.5,0,0,1-13.31-5q-5.22-5-5.22-13a22,22,0,0,1,1.17-7.44,17.73,17.73,0,0,1,3.5-5.91,17.38,17.38,0,0,1,4.81-3.9,42.22,42.22,0,0,1,5.62-2.74c2.19-.82,6.62-2.36,13.31-4.59A101,101,0,0,0,809.77,381v-7.23a32.2,32.2,0,0,0-.4-3.64,15.29,15.29,0,0,0-1.72-5.11,14.54,14.54,0,0,0-4.12-4.7q-2.65-2-7.55-2a16.79,16.79,0,0,0-6.23,1.14,11.4,11.4,0,0,0-4,2.36,19.88,19.88,0,0,0,.69,4.3,22.49,22.49,0,0,1,.7,5.26,6.3,6.3,0,0,1-2.3,4.67,9.06,9.06,0,0,1-6.38,2.11,6,6,0,0,1-5.36-2.59,10.21,10.21,0,0,1-1.72-5.8,10.33,10.33,0,0,1,2.37-6.41,23.59,23.59,0,0,1,6.17-5.47,33.38,33.38,0,0,1,8-3.47,31.1,31.1,0,0,1,9.11-1.42,60.68,60.68,0,0,1,10.69.83,19.75,19.75,0,0,1,8.28,3.62,16.82,16.82,0,0,1,5.65,7.33,31.24,31.24,0,0,1,1.93,11.92q0,10.43-.22,18.49T823,412.78a8.89,8.89,0,0,0,1,4.52,7.92,7.92,0,0,0,3,2.84,7.33,7.33,0,0,0,3.47.73c1.58.05,3.2.08,4.85.08ZM809.92,387.1q-6.21,1.83-10.87,3.59a44.13,44.13,0,0,0-8.68,4.38,19.66,19.66,0,0,0-5.76,5.89,14.94,14.94,0,0,0-2.12,8.07q0,6.08,3.17,8.92a11.64,11.64,0,0,0,8.07,2.85,16.51,16.51,0,0,0,9.11-2.52,26.5,26.5,0,0,0,6.64-6Z"/><path class="cls-14" d="M164,513.22H146.51v-1.54c.62,0,1.44-.07,2.43-.16a7.65,7.65,0,0,0,2-.37,3.37,3.37,0,0,0,1.27-.95,2.13,2.13,0,0,0,.4-1.34v-22.5h-.42l-13.46,26.36h-1.39l-12.82-26.91h-.36v18.47a14.56,14.56,0,0,0,.43,4.08,3.67,3.67,0,0,0,1.32,2,7.33,7.33,0,0,0,2.53.87,19.31,19.31,0,0,0,2.51.44v1.54H115v-1.54a25.88,25.88,0,0,0,2.63-.33,5.87,5.87,0,0,0,2.13-.72,3.19,3.19,0,0,0,1.34-1.88,17.26,17.26,0,0,0,.36-4.23V488.69a5.22,5.22,0,0,0-.42-2.25,3.49,3.49,0,0,0-1.2-1.41,6,6,0,0,0-2.11-.87,11.81,11.81,0,0,0-2.47-.33v-1.55h13.45l11.31,23.23,9.65-19.43a17.78,17.78,0,0,0,.91-2.24,8.62,8.62,0,0,0,.4-1.56h12.87v1.55a18.29,18.29,0,0,0-2,.19,17.7,17.7,0,0,0-1.77.33,2,2,0,0,0-1.28.87,2.76,2.76,0,0,0-.33,1.33v22.31a2.38,2.38,0,0,0,.33,1.29,2.76,2.76,0,0,0,1.28.91,8,8,0,0,0,1.78.41q1.29.18,2,.21Z"/><path class="cls-14" d="M192.9,508.16a12.22,12.22,0,0,1-4.61,4.1,14,14,0,0,1-6.65,1.53,17,17,0,0,1-5.8-.91,11.63,11.63,0,0,1-4.1-2.49,10,10,0,0,1-2.41-3.67,12.28,12.28,0,0,1-.79-4.42,10.4,10.4,0,0,1,.85-4.11,11,11,0,0,1,2.48-3.63,11.82,11.82,0,0,1,3.94-2.5,14,14,0,0,1,5.27-.95,15.92,15.92,0,0,1,5.15.74,9.44,9.44,0,0,1,3.48,2,7.67,7.67,0,0,1,1.9,2.88,10,10,0,0,1,.63,3.6v1.44H174.07a13.28,13.28,0,0,0,.52,3.85,8.37,8.37,0,0,0,1.62,3,7.44,7.44,0,0,0,2.84,2,10.76,10.76,0,0,0,4.17.73,9.28,9.28,0,0,0,4.27-.91,10,10,0,0,0,3.47-3.27ZM186.76,500a13.88,13.88,0,0,0-.27-2.62,6.6,6.6,0,0,0-.85-2.32,4.83,4.83,0,0,0-1.75-1.63,5.77,5.77,0,0,0-2.86-.63,6.64,6.64,0,0,0-4.86,1.9,7.64,7.64,0,0,0-2.1,5.3Z"/><path class="cls-14" d="M222.5,513.22H209.92v-1.44c.84-.07,1.56-.14,2.14-.21s.88-.26.88-.57a1.27,1.27,0,0,0-.28-.61c-.18-.28-.37-.53-.56-.77-.46-.57-1.1-1.32-1.9-2.27s-1.8-2.1-3-3.42q-1.46,1.43-2.67,2.76c-.82.89-1.68,1.84-2.57,2.85a4.64,4.64,0,0,0-.4.55,1,1,0,0,0-.21.52c0,.31.26.58.79.79a8.7,8.7,0,0,0,2.39.43v1.39H194.4v-1.35a12,12,0,0,0,3-1.06,9.62,9.62,0,0,0,2.13-1.54c.57-.58,1.37-1.38,2.41-2.4s2.36-2.41,4-4.16l-3.47-3.88L199.14,495a5.94,5.94,0,0,0-1.66-1.35,5.55,5.55,0,0,0-2.63-.51v-1.44h11.93v1.44a16.61,16.61,0,0,0-1.74.09c-.58.06-.86.19-.86.39a.79.79,0,0,0,.16.44c.11.15.25.33.42.52l1.9,2.29q1.29,1.55,2.79,3.27l2.28-2.44c.86-.93,1.65-1.82,2.38-2.66a3.19,3.19,0,0,0,.22-.39.92.92,0,0,0,.11-.44c0-.31-.32-.55-1-.73a12.2,12.2,0,0,0-1.83-.38v-1.4h10.13v1.35a14.11,14.11,0,0,0-3.34,1,8.15,8.15,0,0,0-2,1.39c-.62.59-1.34,1.32-2.18,2.2l-3.55,3.66c1.69,1.87,3.06,3.39,4.12,4.58s2.12,2.42,3.19,3.68a6.57,6.57,0,0,0,1.8,1.52,6.21,6.21,0,0,0,2.71.64Z"/><path class="cls-14" d="M238.13,513.22H224.89v-1.44l1.32-.09a5.47,5.47,0,0,0,1.18-.17,1.82,1.82,0,0,0,1.54-2V496.3a2.19,2.19,0,0,0-.41-1.28,3.39,3.39,0,0,0-1.13-1,6.1,6.1,0,0,0-1.53-.44,13.25,13.25,0,0,0-1.83-.23v-1.44l9.68-.48.39.3V509.3a2,2,0,0,0,.37,1.26,2.23,2.23,0,0,0,1.17.75c.41.12.81.23,1.19.31a9.42,9.42,0,0,0,1.3.16ZM234.65,483a2.81,2.81,0,0,1-1,2.18,3.77,3.77,0,0,1-2.57.92,3.7,3.7,0,0,1-2.47-.88,2.61,2.61,0,0,1-1-2,2.7,2.7,0,0,1,1-2.09,3.67,3.67,0,0,1,2.47-.9,4,4,0,0,1,2.6.84A2.49,2.49,0,0,1,234.65,483Z"/><path class="cls-14" d="M254.21,513.79q-6,0-9.32-3.1a10.73,10.73,0,0,1-3.36-8.3,10.13,10.13,0,0,1,.9-4.25,11.34,11.34,0,0,1,2.63-3.58,12.08,12.08,0,0,1,4.12-2.5,15,15,0,0,1,5.39-.95,12.78,12.78,0,0,1,6.57,1.51,4.67,4.67,0,0,1,2.53,4.14,3,3,0,0,1-.67,1.93,2.66,2.66,0,0,1-2.2.84,4.31,4.31,0,0,1-2.54-.65,1.82,1.82,0,0,1-.91-1.46,6.33,6.33,0,0,1,.34-2,9.56,9.56,0,0,0,.39-1.51,2.47,2.47,0,0,0-1.49-.9,9,9,0,0,0-2.12-.23,7.19,7.19,0,0,0-2.54.45,6.08,6.08,0,0,0-2.34,1.64,8.07,8.07,0,0,0-1.67,2.95,13.77,13.77,0,0,0-.64,4.43,9.54,9.54,0,0,0,2.3,6.61,7.66,7.66,0,0,0,6,2.56,9,9,0,0,0,4.51-1,11.16,11.16,0,0,0,3.38-3.09l1.77.92a13,13,0,0,1-4.84,4.08A13.71,13.71,0,0,1,254.21,513.79Z"/><path class="cls-14" d="M293.37,512.83c-.87.25-1.63.45-2.29.6a10.15,10.15,0,0,1-2.24.23,6.54,6.54,0,0,1-3.46-.8,3.58,3.58,0,0,1-1.66-2.32h-.16a13.8,13.8,0,0,1-3.88,2.4,13.56,13.56,0,0,1-5,.83,8.22,8.22,0,0,1-5.07-1.48,4.62,4.62,0,0,1-2-3.88,5.41,5.41,0,0,1,.44-2.23,5.23,5.23,0,0,1,1.34-1.77,6.62,6.62,0,0,1,1.83-1.16,18.41,18.41,0,0,1,2.14-.82c.84-.25,2.53-.7,5.08-1.38a45.22,45.22,0,0,0,5.16-1.56v-2.16a7.23,7.23,0,0,0-.15-1.09,4,4,0,0,0-.65-1.53,5,5,0,0,0-1.58-1.41,5.67,5.67,0,0,0-2.88-.6A8.3,8.3,0,0,0,276,493a4.74,4.74,0,0,0-1.54.71,4.91,4.91,0,0,0,.26,1.28,5.29,5.29,0,0,1,.27,1.58,1.74,1.74,0,0,1-.88,1.39,4,4,0,0,1-2.43.63,2.53,2.53,0,0,1-2-.77,2.62,2.62,0,0,1-.66-1.73,2.7,2.7,0,0,1,.91-1.92,8.63,8.63,0,0,1,2.35-1.64,14.85,14.85,0,0,1,3-1,14.6,14.6,0,0,1,3.48-.43,30.07,30.07,0,0,1,4.07.25,8.77,8.77,0,0,1,3.16,1.08,5.45,5.45,0,0,1,2.15,2.19,7.6,7.6,0,0,1,.74,3.57c0,2.08,0,3.92-.08,5.53s-.09,3.36-.09,5.26a2.24,2.24,0,0,0,.38,1.36,2.86,2.86,0,0,0,1.15.85,3.67,3.67,0,0,0,1.32.21c.61,0,1.22,0,1.85,0Zm-9.7-11.52c-1.58.37-3,.73-4.15,1.08a18.71,18.71,0,0,0-3.31,1.31,6.92,6.92,0,0,0-2.2,1.76,3.8,3.8,0,0,0-.8,2.41,3,3,0,0,0,1.21,2.67,5.18,5.18,0,0,0,3.07.85,7.69,7.69,0,0,0,3.48-.75,9.85,9.85,0,0,0,2.53-1.78Z"/><path class="cls-14" d="M326.39,513.22H313v-1.44l1.4-.09a5.73,5.73,0,0,0,1.26-.17,2,2,0,0,0,1.16-.68,2.05,2.05,0,0,0,.38-1.28V498.5A4.49,4.49,0,0,0,315.8,495a4.84,4.84,0,0,0-3.36-1.25,9.58,9.58,0,0,0-2.7.37,10.56,10.56,0,0,0-2.17.88,5.72,5.72,0,0,0-1.47,1.08,8.78,8.78,0,0,0-.79.93v12.36a1.86,1.86,0,0,0,.39,1.22,2.48,2.48,0,0,0,1.17.75,6.63,6.63,0,0,0,1.26.32,12.76,12.76,0,0,0,1.4.15v1.44H296.1v-1.44l1.32-.09a5.38,5.38,0,0,0,1.18-.17,1.81,1.81,0,0,0,1.53-2V496.3a2.46,2.46,0,0,0-.4-1.37,3,3,0,0,0-1.13-1,4.6,4.6,0,0,0-1.25-.38,14.15,14.15,0,0,0-1.56-.16v-1.44l9.13-.48.39.3v3h.14c.44-.35,1-.77,1.66-1.26a14.5,14.5,0,0,1,1.9-1.19,12.31,12.31,0,0,1,2.44-.87,13.64,13.64,0,0,1,3.2-.35q4,0,5.86,1.93a7,7,0,0,1,1.91,5.14v11.18a2.12,2.12,0,0,0,.33,1.24,2.19,2.19,0,0,0,1.14.73,8.61,8.61,0,0,0,1.15.3,11.41,11.41,0,0,0,1.35.13Z"/><path class="cls-14" d="M382.42,500.88c-.45.05-1.05.11-1.8.21a7.65,7.65,0,0,0-1.82.4,2.23,2.23,0,0,0-1.18.93,2.68,2.68,0,0,0-.35,1.41v2.39c0,1.75,0,2.93,0,3.54s.06,1.11.1,1.5a51.52,51.52,0,0,1-7.37,2,39,39,0,0,1-7.21.69,24,24,0,0,1-7.29-1.11,19.13,19.13,0,0,1-6.11-3.16,15.34,15.34,0,0,1-4.2-5,14,14,0,0,1-1.56-6.64,14.51,14.51,0,0,1,1.49-6.55,15.63,15.63,0,0,1,4.21-5.26,19.41,19.41,0,0,1,6.3-3.39,25,25,0,0,1,7.83-1.21,24.19,24.19,0,0,1,5.81.63,25.52,25.52,0,0,1,4.37,1.53l1.14-1.48h2.23l.25,10.81H375a27.19,27.19,0,0,0-1.45-3.52,12,12,0,0,0-2.23-3.1,10,10,0,0,0-3.33-2.19,12.06,12.06,0,0,0-4.69-.83,14.1,14.1,0,0,0-5.32.95,11.16,11.16,0,0,0-4.06,2.83,12.11,12.11,0,0,0-2.62,4.52,18.77,18.77,0,0,0-.92,6,16.92,16.92,0,0,0,.9,5.56,12.91,12.91,0,0,0,2.64,4.51,12.08,12.08,0,0,0,4.31,3.05,14.82,14.82,0,0,0,5.88,1.11,15.7,15.7,0,0,0,4.47-.59,8.63,8.63,0,0,0,2.85-1.24,12.53,12.53,0,0,0,.24-2.29c0-.77,0-1.42,0-2v-1.7a4,4,0,0,0-.32-1.63,2.07,2.07,0,0,0-1.33-1,11,11,0,0,0-2.48-.49c-1.05-.11-1.87-.18-2.47-.21v-1.59h17.31Z"/><path class="cls-14" d="M405.81,494.49a3.06,3.06,0,0,1-.7,2,2.57,2.57,0,0,1-2.14.87,3.79,3.79,0,0,1-2.38-.64,1.76,1.76,0,0,1-.82-1.39,4.56,4.56,0,0,1,.09-.87c.07-.27.13-.53.19-.79a7.42,7.42,0,0,0-3.06.83,8.42,8.42,0,0,0-3,2.35v12.52a2,2,0,0,0,.38,1.24,2.33,2.33,0,0,0,1.18.73,9.54,9.54,0,0,0,1.79.32c.74.08,1.37.12,1.91.15v1.44H384.81v-1.44l1.32-.09a5.57,5.57,0,0,0,1.18-.17,2.09,2.09,0,0,0,1.16-.68,2.11,2.11,0,0,0,.37-1.28V496.3a2.48,2.48,0,0,0-.4-1.33,3,3,0,0,0-1.13-1.05,4.6,4.6,0,0,0-1.25-.38,14.15,14.15,0,0,0-1.56-.16v-1.44l9.12-.48.39.3v3h.14a11.82,11.82,0,0,1,3.84-2.68,9.69,9.69,0,0,1,3.87-.92,4.39,4.39,0,0,1,2.85.89A3,3,0,0,1,405.81,494.49Z"/><path class="cls-14" d="M421.44,513.22H408.2v-1.44l1.32-.09a5.47,5.47,0,0,0,1.18-.17,1.83,1.83,0,0,0,1.53-2V496.3a2.18,2.18,0,0,0-.4-1.28,3.39,3.39,0,0,0-1.13-1,6.1,6.1,0,0,0-1.53-.44,13.44,13.44,0,0,0-1.83-.23v-1.44l9.68-.48.39.3V509.3a2,2,0,0,0,.37,1.26,2.23,2.23,0,0,0,1.17.75c.41.12.8.23,1.19.31a9.42,9.42,0,0,0,1.3.16ZM418,483a2.84,2.84,0,0,1-1,2.18,3.76,3.76,0,0,1-2.58.92,3.69,3.69,0,0,1-2.46-.88,2.61,2.61,0,0,1-1-2,2.7,2.7,0,0,1,1-2.09,3.66,3.66,0,0,1,2.46-.9A4,4,0,0,1,417,481,2.46,2.46,0,0,1,418,483Z"/><path class="cls-14" d="M437.69,513.22H424.31v-1.44l1.36-.1a6.86,6.86,0,0,0,1.2-.16,2.07,2.07,0,0,0,1.16-.69,2,2,0,0,0,.39-1.27V484.64a2.66,2.66,0,0,0-.43-1.47,3.08,3.08,0,0,0-1.12-1.09,7.32,7.32,0,0,0-1.84-.48c-.89-.14-1.61-.23-2.14-.26V480l10.32-.48.38.32V509.3a2,2,0,0,0,.37,1.25,2.28,2.28,0,0,0,1.17.76,7.73,7.73,0,0,0,1.21.32,9.92,9.92,0,0,0,1.35.15Z"/><path class="cls-14" d="M454,513.22H440.61v-1.44l1.36-.1a6.86,6.86,0,0,0,1.2-.16,2,2,0,0,0,1.16-.69,2,2,0,0,0,.4-1.27V484.64a2.67,2.67,0,0,0-.44-1.47,3.08,3.08,0,0,0-1.12-1.09,7.32,7.32,0,0,0-1.84-.48c-.89-.14-1.61-.23-2.14-.26V480l10.32-.48.39.32V509.3a2.06,2.06,0,0,0,.36,1.25,2.28,2.28,0,0,0,1.17.76,7.73,7.73,0,0,0,1.21.32,9.92,9.92,0,0,0,1.35.15Z"/><path class="cls-14" d="M509.62,495.17a19.1,19.1,0,0,0-3.31.51,5.37,5.37,0,0,0-2.56,1.28,6.28,6.28,0,0,0-1.18,1.54l-1.43,2.43c-.56.92-1.12,1.84-1.69,2.74a15.69,15.69,0,0,1-2.23,2.7,35.43,35.43,0,0,0,2.73,2.29,16.1,16.1,0,0,0,2.75,1.77,13.08,13.08,0,0,0,3.15.85,25.11,25.11,0,0,0,3.35.4v1.54H497.74l-4.14-3.7c-.61.52-1.32,1.06-2.1,1.62a16.32,16.32,0,0,1-2.49,1.45,17.76,17.76,0,0,1-2.91,1,14.44,14.44,0,0,1-3.44.37,18.18,18.18,0,0,1-4.08-.47,12,12,0,0,1-3.7-1.5,8.15,8.15,0,0,1-2.62-2.57,6.77,6.77,0,0,1-1-3.75,7.46,7.46,0,0,1,1.82-4.89c1.22-1.47,3.48-3,6.8-4.66a43.44,43.44,0,0,1-3.5-4,6.27,6.27,0,0,1-1.25-3.82,5.16,5.16,0,0,1,.76-2.76,7.28,7.28,0,0,1,2.16-2.2,10.45,10.45,0,0,1,3.11-1.32,14.25,14.25,0,0,1,3.73-.48,12.51,12.51,0,0,1,3.91.55,8.33,8.33,0,0,1,2.74,1.45,5.83,5.83,0,0,1,1.49,1.92,5.15,5.15,0,0,1,.51,2.19,5.86,5.86,0,0,1-2.07,4.49,19,19,0,0,1-5.69,3.4c1.73,1.84,3.44,3.53,5.11,5s3.27,3,4.8,4.48a25.56,25.56,0,0,0,2.89-4.4,8.37,8.37,0,0,0,1-3.63c0-.46-.43-.83-1.29-1.1a27.56,27.56,0,0,0-3.57-.77v-1.55h14.88Zm-17.5,13.08c-1.72-1.71-3.67-3.59-5.83-5.64s-3.89-3.77-5.18-5.17a7.79,7.79,0,0,0-3.19,2.86,7.52,7.52,0,0,0-.93,3.76,6.34,6.34,0,0,0,2.16,4.92,8.26,8.26,0,0,0,5.77,1.95,12.21,12.21,0,0,0,4-.68A8,8,0,0,0,492.12,508.25ZM490,488.08a4.57,4.57,0,0,0-1.24-3.42,5.94,5.94,0,0,0-5.72-.77,5.29,5.29,0,0,0-1.47,1.05,3.92,3.92,0,0,0-.8,1.31,3.64,3.64,0,0,0-.25,1.24,5.58,5.58,0,0,0,1,3.05,26.5,26.5,0,0,0,3.11,3.71,11.52,11.52,0,0,0,4.12-2.74A5.12,5.12,0,0,0,490,488.08Z"/><path class="cls-14" d="M543.48,514a21.28,21.28,0,0,1-6.77-1.08,18.08,18.08,0,0,1-5.74-3.15,15.15,15.15,0,0,1-3.94-5,14.75,14.75,0,0,1-1.47-6.66,15.48,15.48,0,0,1,1.44-6.74,15.74,15.74,0,0,1,4-5.2,18.05,18.05,0,0,1,6-3.34,22.75,22.75,0,0,1,7.36-1.18,21.77,21.77,0,0,1,9.78,2.16l1.14-1.48h2.23l.25,11h-2.28a22.92,22.92,0,0,0-1.33-3.5,13.25,13.25,0,0,0-2.09-3.19,9.66,9.66,0,0,0-3.17-2.33,10.11,10.11,0,0,0-4.19-.84,13.38,13.38,0,0,0-5,.94,11.06,11.06,0,0,0-4,2.78,12.58,12.58,0,0,0-2.53,4.49,19.08,19.08,0,0,0-.92,6.09,15,15,0,0,0,1,5.45,13.11,13.11,0,0,0,2.74,4.35,12.53,12.53,0,0,0,4.21,2.9,13.52,13.52,0,0,0,5.43,1.05,14.65,14.65,0,0,0,4.14-.56,11.91,11.91,0,0,0,3.28-1.47,12.76,12.76,0,0,0,2.44-2.18,10.91,10.91,0,0,0,1.72-2.66l2.09.78a14.5,14.5,0,0,1-6.33,6.58A20.92,20.92,0,0,1,543.48,514Z"/><path class="cls-14" d="M588,512.83c-.87.25-1.64.45-2.3.6a10.09,10.09,0,0,1-2.24.23,6.56,6.56,0,0,1-3.46-.8,3.57,3.57,0,0,1-1.65-2.32h-.17a13.8,13.8,0,0,1-3.88,2.4,13.5,13.5,0,0,1-5,.83,8.27,8.27,0,0,1-5.08-1.48,4.65,4.65,0,0,1-2-3.88,5.25,5.25,0,0,1,.45-2.23,5.2,5.2,0,0,1,1.33-1.77,6.85,6.85,0,0,1,1.84-1.16,17.75,17.75,0,0,1,2.14-.82c.83-.25,2.52-.7,5.08-1.38a46.61,46.61,0,0,0,5.16-1.56v-2.16a8.9,8.9,0,0,0-.15-1.09,4.14,4.14,0,0,0-.66-1.53,4.92,4.92,0,0,0-1.57-1.41,5.72,5.72,0,0,0-2.88-.6,8.24,8.24,0,0,0-2.38.34,4.63,4.63,0,0,0-1.54.71,4.91,4.91,0,0,0,.26,1.28,5.29,5.29,0,0,1,.27,1.58,1.76,1.76,0,0,1-.88,1.39,4,4,0,0,1-2.43.63,2.56,2.56,0,0,1-2.05-.77,2.66,2.66,0,0,1-.65-1.73,2.73,2.73,0,0,1,.9-1.92,8.79,8.79,0,0,1,2.35-1.64,15.06,15.06,0,0,1,3-1,14.66,14.66,0,0,1,3.48-.43,29.86,29.86,0,0,1,4.07.25,8.64,8.64,0,0,1,3.16,1.08,5.42,5.42,0,0,1,2.16,2.19,7.6,7.6,0,0,1,.73,3.57c0,2.08,0,3.92-.08,5.53s-.08,3.36-.08,5.26a2.24,2.24,0,0,0,.37,1.36,3,3,0,0,0,1.16.85,3.67,3.67,0,0,0,1.32.21c.6,0,1.22,0,1.85,0Zm-9.71-11.52c-1.58.37-3,.73-4.14,1.08a18.41,18.41,0,0,0-3.31,1.31,6.81,6.81,0,0,0-2.2,1.76,3.75,3.75,0,0,0-.81,2.41,3.06,3.06,0,0,0,1.21,2.67,5.21,5.21,0,0,0,3.08.85,7.74,7.74,0,0,0,3.48-.75,9.85,9.85,0,0,0,2.53-1.78Z"/><path class="cls-14" d="M621,513.22H607.55v-1.44l1.41-.09a5.92,5.92,0,0,0,1.27-.17,1.83,1.83,0,0,0,1.53-2V498.5a4.55,4.55,0,0,0-1.38-3.53,4.84,4.84,0,0,0-3.36-1.25,9.6,9.6,0,0,0-2.71.37,10.79,10.79,0,0,0-2.17.88,5.65,5.65,0,0,0-1.46,1.08,9.13,9.13,0,0,0-.8.93v12.36a1.86,1.86,0,0,0,.39,1.22,2.53,2.53,0,0,0,1.17.75,6.83,6.83,0,0,0,1.26.32,12.43,12.43,0,0,0,1.41.15v1.44H590.67v-1.44l1.32-.09a5.38,5.38,0,0,0,1.18-.17,2,2,0,0,0,1.16-.68,2.05,2.05,0,0,0,.38-1.28V496.3a2.47,2.47,0,0,0-.41-1.37,2.93,2.93,0,0,0-1.13-1,4.6,4.6,0,0,0-1.25-.38,14.22,14.22,0,0,0-1.55-.16v-1.44l9.12-.48.39.3v3H600c.44-.35,1-.77,1.67-1.26a15.13,15.13,0,0,1,1.89-1.19,12.42,12.42,0,0,1,2.45-.87,13.57,13.57,0,0,1,3.2-.35q3.94,0,5.85,1.93A7,7,0,0,1,617,498.2v11.18a2.12,2.12,0,0,0,.33,1.24,2.19,2.19,0,0,0,1.14.73,8.61,8.61,0,0,0,1.15.3,11.41,11.41,0,0,0,1.35.13Z"/><path class="cls-14" d="M641.27,512.29q-1.8.59-3.42,1a16.52,16.52,0,0,1-4,.4q-3.45,0-4.86-1.36a5.14,5.14,0,0,1-1.4-3.85V493.9h-4.95v-2.09h5.06v-6.69h5.06v6.69h7.88v2.09h-7.82v12a15.67,15.67,0,0,0,.13,2.25,3.63,3.63,0,0,0,.59,1.59,2.79,2.79,0,0,0,1.34,1,7.33,7.33,0,0,0,2.39.32c.47,0,1.15,0,2-.1a10,10,0,0,0,1.9-.25Z"/><path class="cls-14" d="M657.3,513.22H644.06v-1.44l1.32-.09a5.57,5.57,0,0,0,1.18-.17,2,2,0,0,0,1.15-.68,2.05,2.05,0,0,0,.38-1.28V496.3a2.25,2.25,0,0,0-.4-1.28,3.49,3.49,0,0,0-1.13-1,6.37,6.37,0,0,0-1.53-.44,13.38,13.38,0,0,0-1.84-.23v-1.44l9.68-.48.39.3V509.3a2,2,0,0,0,.37,1.26,2.22,2.22,0,0,0,1.18.75c.4.12.8.23,1.18.31a9.58,9.58,0,0,0,1.31.16ZM653.82,483a2.82,2.82,0,0,1-1.05,2.18,3.75,3.75,0,0,1-2.57.92,3.66,3.66,0,0,1-2.46-.88,2.58,2.58,0,0,1-1-2,2.67,2.67,0,0,1,1-2.09,3.63,3.63,0,0,1,2.46-.9,4,4,0,0,1,2.6.84A2.48,2.48,0,0,1,653.82,483Z"/><path class="cls-14" d="M691,513.22H677.57v-1.44l1.41-.09a5.73,5.73,0,0,0,1.26-.17,1.81,1.81,0,0,0,1.53-2V498.5A4.54,4.54,0,0,0,680.4,495a4.88,4.88,0,0,0-3.37-1.25,9.53,9.53,0,0,0-2.7.37,10.89,10.89,0,0,0-2.18.88,5.83,5.83,0,0,0-1.46,1.08,10.63,10.63,0,0,0-.8.93v12.36a1.86,1.86,0,0,0,.4,1.22,2.49,2.49,0,0,0,1.16.75,6.74,6.74,0,0,0,1.27.32,12.43,12.43,0,0,0,1.41.15v1.44H660.69v-1.44l1.32-.09a5.38,5.38,0,0,0,1.18-.17,1.81,1.81,0,0,0,1.53-2V496.3a2.55,2.55,0,0,0-.4-1.37,3,3,0,0,0-1.13-1,4.6,4.6,0,0,0-1.25-.38,14.15,14.15,0,0,0-1.56-.16v-1.44l9.13-.48.38.3v3H670c.45-.35,1-.77,1.68-1.26a14.37,14.37,0,0,1,1.88-1.19,12.66,12.66,0,0,1,2.45-.87,13.64,13.64,0,0,1,3.2-.35q4,0,5.86,1.93a7,7,0,0,1,1.9,5.14v11.18a2.12,2.12,0,0,0,.34,1.24,2.19,2.19,0,0,0,1.14.73,7.9,7.9,0,0,0,1.15.3,11,11,0,0,0,1.35.13Z"/><path class="cls-14" d="M720.33,512.83c-.87.25-1.64.45-2.3.6a10.09,10.09,0,0,1-2.24.23,6.56,6.56,0,0,1-3.46-.8,3.62,3.62,0,0,1-1.66-2.32h-.16a13.8,13.8,0,0,1-3.88,2.4,13.5,13.5,0,0,1-5,.83,8.25,8.25,0,0,1-5.08-1.48,4.62,4.62,0,0,1-2-3.88,5.41,5.41,0,0,1,.44-2.23,5.23,5.23,0,0,1,1.34-1.77,6.69,6.69,0,0,1,1.84-1.16,17.14,17.14,0,0,1,2.14-.82c.83-.25,2.52-.7,5.07-1.38a45.22,45.22,0,0,0,5.16-1.56v-2.16a7.23,7.23,0,0,0-.15-1.09,4,4,0,0,0-.65-1.53,4.86,4.86,0,0,0-1.58-1.41,5.65,5.65,0,0,0-2.87-.6,8.24,8.24,0,0,0-2.38.34,4.63,4.63,0,0,0-1.54.71,4.52,4.52,0,0,0,.26,1.28,5.26,5.26,0,0,1,.26,1.58A1.74,1.74,0,0,1,701,498a4,4,0,0,1-2.43.63,2.54,2.54,0,0,1-2-.77,2.62,2.62,0,0,1-.66-1.73,2.74,2.74,0,0,1,.91-1.92,8.79,8.79,0,0,1,2.35-1.64,15.06,15.06,0,0,1,3-1,14.66,14.66,0,0,1,3.48-.43,30,30,0,0,1,4.07.25,8.77,8.77,0,0,1,3.16,1.08,5.48,5.48,0,0,1,2.16,2.19,7.6,7.6,0,0,1,.73,3.57c0,2.08,0,3.92-.08,5.53s-.08,3.36-.08,5.26a2.24,2.24,0,0,0,.37,1.36,2.9,2.9,0,0,0,1.16.85,3.59,3.59,0,0,0,1.32.21c.6,0,1.22,0,1.85,0Zm-9.71-11.52q-2.37.56-4.14,1.08a18.51,18.51,0,0,0-3.32,1.31,6.92,6.92,0,0,0-2.2,1.76,3.8,3.8,0,0,0-.8,2.41,3.06,3.06,0,0,0,1.21,2.67,5.18,5.18,0,0,0,3.07.85,7.69,7.69,0,0,0,3.48-.75,9.85,9.85,0,0,0,2.53-1.78Z"/><path class="cls-14" d="M99.57,502.92c.05,2.25-31.39-.47-31.39-.47s31.56-5.13,31.39-2.95A17,17,0,0,0,99.57,502.92Z"/><path class="cls-14" d="M736.45,502.92c-.05,2.25,31.39-.47,31.39-.47s-31.57-5.13-31.39-2.95A17.76,17.76,0,0,1,736.45,502.92Z"/></g></g></svg>