<?xml version="1.0" standalone="no"?>
<!DOCTYPE svg PUBLIC "-//W3C//DTD SVG 20010904//EN"
 "http://www.w3.org/TR/2001/REC-SVG-20010904/DTD/svg10.dtd">
<svg version="1.0" xmlns="http://www.w3.org/2000/svg"
 width="508.000000pt" height="184.000000pt" viewBox="0 0 508.000000 184.000000"
 preserveAspectRatio="xMidYMid meet">

<g transform="translate(0.000000,184.000000) scale(0.100000,-0.100000)"
fill="#000000" stroke="none">
<path d="M0 920 l0 -920 2540 0 2540 0 0 920 0 920 -2540 0 -2540 0 0 -920z
m3902 572 c9 -7 39 -48 67 -90 l51 -78 0 -140 0 -139 -35 -52 c-19 -29 -35
-57 -35 -62 0 -6 16 -36 35 -68 l35 -58 0 -141 0 -140 -57 -85 -58 -84 -67 -3
-68 -3 0 281 0 280 -90 0 c-73 0 -90 3 -90 15 0 12 17 15 90 15 l90 0 0 284 0
284 58 -2 c33 0 66 -7 74 -14z m-506 -147 l-96 -128 0 -292 0 -292 95 -127
c89 -117 103 -147 72 -146 -7 1 -56 60 -109 132 l-98 132 0 302 0 303 102 136
c88 117 103 134 116 121 12 -12 1 -31 -82 -141z m1040 2 l-96 -125 0 -144 0
-143 262 3 c262 3 308 0 308 -18 0 -6 -105 -10 -285 -10 l-285 0 0 -138 0
-139 95 -127 c89 -117 103 -147 72 -145 -7 0 -56 58 -109 129 l-98 129 0 306
0 305 102 136 c88 117 103 133 116 121 12 -13 1 -31 -82 -140z m-3456 107
c-85 -18 -166 -33 -180 -33 -14 0 -92 15 -175 34 l-150 33 330 0 330 0 -155
-34z m1240 15 c0 -17 -8 -19 -60 -19 l-60 0 0 -127 0 -128 70 -136 70 -137 0
-275 c0 -313 9 -287 -96 -287 -57 0 -64 2 -64 20 0 18 7 20 60 20 l60 0 0 255
0 255 -285 0 c-260 0 -318 5 -268 24 9 4 132 6 275 6 142 -1 258 1 258 5 1 3
-26 59 -60 125 l-60 119 0 144 c0 79 3 146 6 149 3 4 39 6 80 6 66 0 74 -2 74
-19z m656 -253 c46 -148 85 -271 88 -273 2 -3 37 -4 78 -4 77 1 108 -5 108
-19 0 -5 -41 -11 -91 -12 l-90 -3 1 -266 c0 -146 -2 -268 -6 -271 -3 -4 -12
-4 -20 -1 -12 4 -14 53 -14 277 l0 271 -83 265 c-58 186 -87 266 -98 268 -12
2 -31 -54 -92 -270 l-78 -273 1 -272 c0 -253 -1 -271 -17 -269 -17 3 -18 23
-18 274 l0 272 -93 0 c-71 0 -93 3 -90 13 3 8 34 13 94 15 49 2 90 5 92 6 1 2
36 122 78 267 41 145 78 267 81 272 2 4 23 7 46 5 l40 -3 83 -269z m-2281 209
c87 -19 159 -36 161 -37 1 -2 -47 -94 -108 -206 l-111 -202 -81 197 -81 198
23 43 c13 23 27 42 31 42 5 0 79 -16 166 -35z m613 -6 l24 -41 -79 -194 c-43
-107 -81 -194 -84 -194 -8 0 -220 392 -215 398 5 4 292 69 316 71 8 0 26 -18
38 -40z m-775 -274 c71 -171 79 -198 84 -272 l5 -83 -156 0 -156 0 0 268 c0
148 3 272 7 276 4 4 36 6 72 4 l65 -3 79 -190z m955 -82 l2 -273 -150 0 -150
0 0 73 c0 67 5 85 77 262 42 105 81 196 86 203 7 9 30 12 71 10 l61 -3 3 -272z
m-908 -330 c0 -5 -54 -89 -120 -188 l-120 -180 0 188 0 187 120 0 c66 0 120
-3 120 -7z m885 -5 c3 -8 4 -92 3 -187 l-3 -173 -120 178 c-66 98 -121 181
-123 185 -1 3 52 7 118 8 93 2 121 -1 125 -11z m-875 -218 l0 -160 -82 0
c-143 0 -142 -10 -25 166 56 84 103 154 105 154 1 0 2 -72 2 -160z m730 10
c55 -82 100 -154 100 -159 0 -5 -43 -9 -102 -8 l-103 2 -2 158 c-1 86 0 157 2
157 3 0 50 -67 105 -150z"/>
<path d="M3810 928 l0 -543 34 0 c31 0 38 7 86 75 l51 75 1 130 1 130 -42 67
-42 66 42 67 42 66 -1 126 -1 125 -52 79 c-47 73 -54 79 -85 79 l-34 0 0 -542z"/>
</g>
</svg>
