<svg id="svg" version="1.1" xmlns="http://www.w3.org/2000/svg" xmlns:xlink="http://www.w3.org/1999/xlink" width="400" height="480.24316109422494" viewBox="0, 0, 400,480.24316109422494"><g id="svgg"><path id="path0" d="M158.620 63.933 C 159.723 64.898,195.465 72.008,199.200 72.004 C 202.984 72.001,238.330 64.916,239.380 63.950 C 239.597 63.750,222.276 63.600,199.000 63.600 C 176.582 63.600,158.411 63.750,158.620 63.933 M148.003 72.843 C 145.360 77.711,144.759 79.130,144.909 80.143 C 145.059 81.151,149.631 92.820,151.201 96.200 C 151.405 96.640,152.217 98.620,153.006 100.600 C 153.795 102.580,154.603 104.560,154.803 105.000 C 155.267 106.024,160.352 118.542,162.486 123.913 C 164.437 128.828,164.307 128.837,167.187 123.585 C 169.925 118.590,189.112 83.313,191.110 79.600 C 191.879 78.170,192.664 76.829,192.854 76.620 C 193.698 75.693,193.195 75.477,187.200 74.193 C 185.550 73.840,182.985 73.292,181.500 72.975 C 180.015 72.659,177.585 72.135,176.100 71.811 C 165.630 69.528,152.471 66.800,151.931 66.800 C 151.508 66.800,150.148 68.891,148.003 72.843 M244.360 66.974 C 244.243 67.090,242.720 67.473,240.974 67.825 C 237.969 68.431,235.294 68.996,229.800 70.186 C 228.480 70.472,225.960 71.013,224.200 71.388 C 219.980 72.288,218.529 72.602,214.000 73.601 C 211.910 74.061,209.210 74.624,208.000 74.851 C 204.638 75.483,204.642 75.503,210.282 85.600 C 210.712 86.370,211.841 88.440,212.791 90.200 C 213.741 91.960,217.617 99.070,221.405 106.000 C 225.193 112.930,229.062 120.034,230.002 121.788 C 232.523 126.487,233.244 127.766,233.559 128.101 C 233.714 128.266,234.442 126.916,235.175 125.101 C 235.908 123.285,237.284 119.910,238.234 117.600 C 246.195 98.233,253.597 79.837,253.581 79.459 C 253.445 76.123,245.698 65.635,244.360 66.974 M124.098 118.100 L 124.200 152.600 143.100 152.704 L 162.000 152.808 162.000 142.818 L 162.000 132.829 154.780 115.114 C 146.883 95.741,144.493 89.896,142.918 86.100 L 141.880 83.600 132.938 83.600 L 123.996 83.600 124.098 118.100 M254.715 87.300 C 252.945 91.789,247.707 104.688,247.203 105.800 C 247.003 106.240,246.195 108.220,245.406 110.200 C 244.617 112.180,243.804 114.160,243.598 114.600 C 243.392 115.040,242.249 117.830,241.058 120.800 C 239.867 123.770,238.242 127.765,237.446 129.677 L 236.000 133.155 236.000 142.977 L 236.000 152.800 255.000 152.800 L 274.000 152.800 274.000 118.200 L 274.000 83.600 265.087 83.600 L 256.174 83.600 254.715 87.300 M127.200 183.067 C 127.200 195.973,127.304 206.429,127.432 206.301 C 128.960 204.773,158.246 160.150,157.875 159.914 C 157.614 159.748,150.605 159.609,142.300 159.606 L 127.200 159.600 127.200 183.067 M240.114 159.858 C 239.640 160.052,269.848 205.880,270.503 205.962 C 270.670 205.983,270.760 195.605,270.703 182.900 L 270.600 159.800 255.600 159.729 C 247.350 159.690,240.381 159.748,240.114 159.858 M239.200 187.200 L 239.200 207.600 252.843 207.600 C 264.824 207.600,266.457 207.527,266.255 206.998 C 265.957 206.223,239.588 166.800,239.367 166.800 C 239.275 166.800,239.200 175.980,239.200 187.200 M145.000 187.032 C 137.740 197.924,131.740 207.008,131.667 207.218 C 131.584 207.456,136.675 207.600,145.167 207.600 L 158.800 207.600 158.800 187.400 C 158.800 176.290,158.665 167.206,158.500 167.214 C 158.335 167.221,152.260 176.139,145.000 187.032 M250.000 290.920 C 250.000 314.436,249.885 321.955,249.520 322.320 C 249.175 322.665,246.475 322.800,239.898 322.800 L 230.756 322.800 230.878 324.700 L 231.000 326.600 240.400 326.800 L 249.800 327.000 249.902 357.900 L 250.005 388.800 257.519 388.800 L 265.033 388.800 269.216 382.716 C 271.517 379.370,274.613 374.915,276.097 372.816 L 278.793 369.000 278.797 353.312 L 278.800 337.624 274.800 331.220 C 270.109 323.709,270.238 324.462,272.932 320.296 C 274.105 318.483,275.905 315.689,276.932 314.088 L 278.800 311.175 278.788 295.688 L 278.775 280.200 273.421 272.400 C 270.477 268.110,267.333 263.565,266.435 262.300 L 264.802 260.000 257.401 260.000 L 250.000 260.000 250.000 290.920 M204.864 275.995 L 194.000 290.391 194.000 324.456 L 194.000 358.521 203.981 371.760 C 209.471 379.042,214.399 385.534,214.933 386.188 L 215.904 387.375 217.543 386.239 C 218.445 385.615,219.377 384.869,219.615 384.582 C 219.947 384.182,217.653 380.886,209.824 370.517 L 199.600 356.975 199.600 324.500 L 199.600 292.025 209.800 278.493 C 215.410 271.050,220.000 264.850,220.000 264.714 C 220.000 264.463,216.241 261.600,215.911 261.600 C 215.810 261.600,210.840 268.078,204.864 275.995 M329.886 262.309 C 329.545 262.689,324.661 269.117,319.033 276.594 L 308.800 290.189 308.800 324.503 L 308.800 358.818 319.437 372.909 C 331.535 388.936,330.241 387.651,332.592 385.963 C 334.987 384.243,335.707 385.590,324.195 370.277 L 313.990 356.703 314.095 341.852 L 314.200 327.000 344.400 326.800 L 374.600 326.600 374.722 324.703 L 374.844 322.805 344.522 322.703 L 314.200 322.600 314.095 307.434 L 313.990 292.268 324.095 278.835 C 335.681 263.433,334.880 264.841,332.920 263.316 C 330.710 261.598,330.568 261.551,329.886 262.309 M61.600 279.396 L 61.600 296.407 63.545 300.103 C 64.614 302.137,66.891 306.500,68.604 309.800 C 70.316 313.100,72.424 317.122,73.288 318.737 C 75.683 323.219,78.603 322.800,44.991 322.800 L 15.556 322.800 15.678 324.700 L 15.800 326.600 46.200 326.800 L 76.600 327.000 76.600 354.200 L 76.600 381.400 70.500 381.510 L 64.400 381.621 64.400 384.210 L 64.400 386.800 73.200 386.800 L 82.000 386.800 82.000 355.348 L 82.000 323.896 77.740 315.648 C 75.398 311.112,72.812 306.140,71.995 304.600 C 71.177 303.060,69.672 300.160,68.649 298.155 L 66.789 294.510 66.895 281.155 L 67.000 267.800 73.000 267.600 L 79.000 267.400 79.000 265.000 L 79.000 262.600 70.300 262.492 L 61.600 262.384 61.600 279.396 M131.698 265.089 C 131.265 266.580,130.410 269.510,129.799 271.600 C 129.187 273.690,128.546 275.940,128.374 276.600 C 128.201 277.260,127.507 279.735,126.830 282.100 C 126.154 284.465,125.077 288.245,124.439 290.500 C 118.890 310.092,115.426 321.881,115.096 322.300 C 114.800 322.675,112.315 322.800,105.151 322.800 L 95.600 322.800 95.600 324.600 C 95.600 326.829,94.274 326.527,105.200 326.781 L 114.600 327.000 114.800 356.400 L 115.000 385.800 117.400 385.800 L 119.800 385.800 120.004 355.000 L 120.208 324.200 128.290 296.284 C 137.242 265.365,136.503 267.600,137.775 267.600 C 139.361 267.600,139.056 266.818,144.786 285.600 C 145.625 288.350,146.768 292.040,147.326 293.800 C 147.884 295.560,149.177 299.700,150.199 303.000 C 154.499 316.887,155.704 320.696,156.334 322.400 C 156.927 324.003,157.022 327.577,157.200 355.000 L 157.400 385.800 159.800 385.800 L 162.200 385.800 162.406 356.400 C 162.520 340.230,162.655 326.955,162.706 326.900 C 162.758 326.845,166.814 326.800,171.720 326.800 C 181.573 326.800,181.600 326.793,181.600 324.320 L 181.600 322.800 172.049 322.800 C 164.890 322.800,162.397 322.675,162.095 322.300 C 161.686 321.793,161.311 320.626,154.801 299.600 C 152.792 293.110,150.337 285.190,149.346 282.000 C 147.548 276.216,144.226 265.497,143.642 263.600 C 143.336 262.605,143.306 262.599,137.910 262.489 L 132.485 262.378 131.698 265.089 M262.225 265.906 C 262.459 266.068,264.780 269.350,267.384 273.200 C 269.987 277.050,272.451 280.629,272.858 281.154 C 273.548 282.041,273.599 283.065,273.588 295.754 L 273.577 309.400 268.806 316.782 L 264.036 324.164 264.890 325.582 C 265.359 326.362,267.509 329.790,269.668 333.200 L 273.593 339.400 273.580 353.200 L 273.567 367.000 267.855 375.200 L 262.143 383.400 259.584 383.521 C 258.176 383.588,256.614 383.540,256.112 383.414 L 255.200 383.185 255.200 324.659 C 255.200 292.470,255.320 266.013,255.467 265.867 C 255.829 265.504,261.693 265.539,262.225 265.906 " stroke="none" fill="#080808" fill-rule="evenodd"></path><path id="path1" d="M0.000 240.000 L 0.000 480.000 200.000 480.000 L 400.000 480.000 400.000 240.000 L 400.000 0.000 200.000 0.000 L 0.000 0.000 0.000 240.000 M243.948 63.159 C 244.691 63.630,242.818 64.188,235.000 65.821 C 233.240 66.189,230.720 66.726,229.400 67.014 C 228.080 67.302,225.560 67.842,223.800 68.214 C 222.040 68.586,219.520 69.126,218.200 69.415 C 216.880 69.704,214.450 70.235,212.800 70.595 C 211.150 70.955,208.540 71.553,207.000 71.925 C 200.377 73.522,196.540 73.094,174.469 68.298 C 154.154 63.882,153.829 63.800,154.217 63.172 C 154.512 62.694,243.194 62.682,243.948 63.159 M172.773 70.421 C 184.118 72.853,193.558 75.000,193.752 75.193 C 193.955 75.395,192.864 77.807,191.184 80.872 C 189.577 83.802,186.653 89.170,184.685 92.800 C 182.716 96.430,180.617 100.300,180.019 101.400 C 179.421 102.500,178.102 104.930,177.087 106.800 C 167.755 124.004,164.908 129.000,164.434 129.000 C 163.794 129.000,164.134 129.782,154.793 106.800 C 150.814 97.010,146.758 87.071,145.780 84.712 C 143.883 80.143,143.685 79.040,144.537 77.789 C 144.833 77.355,146.213 74.840,147.605 72.200 C 150.833 66.076,150.882 66.000,151.569 66.000 C 151.887 66.000,161.428 67.990,172.773 70.421 M248.320 68.100 C 249.382 69.993,251.603 74.084,253.736 78.078 L 254.525 79.556 253.626 81.678 C 253.132 82.845,251.567 86.680,250.149 90.200 C 248.731 93.720,247.404 96.960,247.199 97.400 C 246.995 97.840,246.183 99.820,245.394 101.800 C 244.605 103.780,243.800 105.760,243.605 106.200 C 243.004 107.551,239.444 116.289,237.005 122.400 C 234.624 128.364,233.883 129.661,233.246 128.983 C 233.048 128.772,231.135 125.360,228.995 121.400 C 226.854 117.440,224.462 113.030,223.678 111.600 C 222.894 110.170,221.834 108.221,221.321 107.269 C 220.808 106.316,219.877 104.606,219.252 103.469 C 209.753 86.186,204.352 75.903,204.529 75.441 C 204.650 75.126,205.705 74.657,206.874 74.399 C 249.144 65.053,246.809 65.408,248.320 68.100 M142.891 84.400 C 143.271 85.170,144.412 87.870,145.426 90.400 C 146.440 92.930,147.428 95.360,147.621 95.800 C 147.814 96.240,148.617 98.220,149.406 100.200 C 150.195 102.180,151.002 104.160,151.200 104.600 C 151.398 105.040,152.205 107.020,152.994 109.000 C 153.783 110.980,154.595 112.960,154.799 113.400 C 155.172 114.203,159.507 124.877,161.662 130.298 L 162.814 133.196 162.707 143.298 L 162.600 153.400 143.200 153.400 L 123.800 153.400 123.697 118.600 C 123.640 99.460,123.681 83.572,123.787 83.292 C 123.937 82.899,126.019 82.809,133.090 82.892 L 142.199 83.000 142.891 84.400 M274.702 117.975 C 274.783 145.691,274.700 153.016,274.302 153.269 C 273.041 154.070,236.053 153.647,235.614 152.826 C 235.363 152.357,235.200 148.436,235.200 142.874 C 235.200 132.698,235.063 133.418,238.614 125.000 C 239.357 123.240,243.213 113.790,247.183 104.000 C 251.153 94.210,254.760 85.432,255.199 84.493 L 255.997 82.785 265.298 82.893 L 274.600 83.000 274.702 117.975 M159.110 159.902 C 158.791 161.121,127.583 207.400,127.080 207.400 C 126.603 207.400,126.119 160.914,126.584 159.700 C 126.932 158.790,159.348 158.992,159.110 159.902 M271.503 183.500 C 271.560 196.755,271.453 207.600,271.265 207.600 C 270.585 207.600,238.800 160.604,238.800 159.597 C 238.800 159.327,244.265 159.226,255.100 159.296 L 271.400 159.400 271.503 183.500 M159.504 186.900 L 159.400 208.200 145.289 208.305 C 133.255 208.395,131.146 208.325,130.956 207.829 C 130.823 207.483,135.778 199.702,143.252 188.524 C 150.137 178.226,156.388 168.855,157.142 167.700 C 159.682 163.814,159.618 163.298,159.504 186.900 M251.126 182.900 C 257.485 192.415,263.703 201.713,264.944 203.561 C 268.483 208.834,269.529 208.400,253.280 208.400 C 242.987 208.400,239.235 208.275,238.880 207.920 C 238.357 207.397,238.149 166.384,238.667 165.867 C 238.813 165.720,239.075 165.600,239.249 165.600 C 239.422 165.600,244.767 173.385,251.126 182.900 M264.313 259.443 C 265.334 259.647,266.154 260.608,269.511 265.543 C 271.703 268.764,274.867 273.380,276.542 275.800 L 279.588 280.200 279.594 295.759 L 279.600 311.317 278.260 313.359 C 273.051 321.297,271.467 323.824,271.471 324.186 C 271.476 324.601,275.744 331.646,278.261 335.395 L 279.600 337.389 279.600 353.206 L 279.600 369.022 277.700 371.698 C 276.655 373.170,275.022 375.505,274.070 376.887 C 273.119 378.269,270.768 381.650,268.846 384.400 L 265.352 389.400 257.376 389.400 L 249.400 389.400 249.298 358.500 C 249.241 341.505,249.151 327.563,249.098 327.519 C 249.044 327.474,244.770 327.339,239.600 327.219 L 230.200 327.000 230.077 325.069 C 229.877 321.937,229.671 322.000,240.049 322.000 L 249.200 322.000 249.200 291.080 C 249.200 267.564,249.315 260.045,249.680 259.680 C 250.192 259.168,261.985 258.977,264.313 259.443 M218.563 262.622 C 219.793 263.624,220.800 264.552,220.800 264.685 C 220.800 264.818,216.120 271.169,210.400 278.800 L 200.000 292.674 200.000 324.519 L 200.000 356.363 210.400 370.162 C 216.120 377.751,220.800 384.107,220.800 384.286 C 220.800 384.867,216.405 388.060,215.786 387.928 C 215.455 387.858,210.327 381.337,204.392 373.438 L 193.600 359.077 193.600 324.462 L 193.600 289.847 202.948 277.424 C 214.134 262.559,215.512 260.800,215.973 260.800 C 216.167 260.800,217.333 261.620,218.563 262.622 M333.187 262.668 C 335.891 264.687,336.458 263.575,325.000 278.738 L 314.800 292.237 314.800 307.118 L 314.800 322.000 344.567 322.000 C 378.487 322.000,375.600 321.736,375.600 324.840 L 375.600 327.195 345.300 327.297 L 315.000 327.400 314.895 342.026 L 314.790 356.653 324.985 370.226 C 330.592 377.692,335.185 384.019,335.190 384.287 C 335.201 384.827,331.183 388.000,330.487 388.000 C 330.061 388.000,326.838 383.866,314.075 366.947 L 308.000 358.894 308.000 324.452 L 308.000 290.011 311.278 285.705 C 313.080 283.337,318.049 276.753,322.320 271.073 C 327.408 264.306,330.272 260.819,330.629 260.956 C 330.928 261.071,332.080 261.841,333.187 262.668 M79.516 264.900 L 79.400 268.200 73.500 268.311 L 67.600 268.421 67.600 281.591 L 67.600 294.761 69.645 298.681 C 70.770 300.836,72.725 304.580,73.988 307.000 C 75.252 309.420,77.753 314.212,79.545 317.649 L 82.805 323.898 82.702 355.649 L 82.600 387.400 73.428 387.508 C 63.016 387.630,63.615 387.833,63.606 384.180 C 63.598 380.808,63.613 380.800,70.280 380.800 L 76.000 380.800 76.000 354.200 C 76.000 339.570,75.955 327.558,75.900 327.506 C 75.845 327.455,62.120 327.320,45.400 327.206 L 15.000 327.000 14.877 325.069 C 14.665 321.747,12.189 322.000,44.849 322.000 C 60.882 322.000,74.000 321.914,74.000 321.808 C 74.000 321.561,68.824 311.607,64.428 303.400 L 61.000 297.000 60.887 279.821 C 60.826 270.373,60.865 262.408,60.975 262.121 C 61.131 261.714,63.190 261.600,70.404 261.600 L 79.632 261.600 79.516 264.900 M144.856 265.400 C 145.475 267.380,146.245 269.810,146.567 270.800 C 146.889 271.790,147.720 274.490,148.415 276.800 C 149.109 279.110,149.922 281.720,150.220 282.600 C 150.519 283.480,151.330 286.090,152.023 288.400 C 152.715 290.710,153.692 293.860,154.194 295.400 C 154.695 296.940,155.677 300.090,156.377 302.400 C 157.076 304.710,158.162 308.220,158.791 310.200 C 159.421 312.180,160.497 315.642,161.183 317.893 L 162.430 321.986 172.115 322.093 L 181.800 322.200 181.919 324.693 L 182.038 327.185 172.719 327.293 L 163.400 327.400 163.200 356.800 L 163.000 386.200 159.800 386.200 L 156.600 386.200 156.400 355.000 C 156.290 337.840,156.081 323.617,155.935 323.394 C 155.789 323.171,153.776 316.871,151.462 309.394 C 145.760 290.969,139.656 271.290,139.144 269.677 C 138.277 266.951,137.213 268.043,135.713 273.200 C 134.977 275.730,134.111 278.700,133.789 279.800 C 132.278 284.966,131.091 289.107,130.808 290.200 C 130.637 290.860,129.379 295.270,128.012 300.000 C 126.646 304.730,125.017 310.400,124.394 312.600 C 123.770 314.800,122.757 318.220,122.142 320.200 L 121.025 323.800 120.813 355.000 L 120.600 386.200 117.400 386.200 L 114.200 386.200 114.097 357.022 C 114.017 334.289,113.885 327.774,113.497 327.528 C 113.224 327.354,108.986 327.209,104.081 327.206 L 95.162 327.200 95.281 324.700 L 95.400 322.200 105.100 322.093 C 110.435 322.034,114.800 321.906,114.800 321.810 C 114.800 321.094,131.779 262.488,132.102 262.089 C 132.410 261.709,133.947 261.607,138.122 261.689 L 143.729 261.800 144.856 265.400 M256.000 324.600 L 256.000 382.800 258.900 382.796 L 261.800 382.791 267.300 374.828 L 272.800 366.865 272.800 353.173 L 272.800 339.481 268.200 332.140 C 265.670 328.103,263.600 324.520,263.600 324.177 C 263.600 323.613,265.862 319.928,270.954 312.200 L 272.798 309.400 272.799 295.869 L 272.800 282.337 268.534 276.069 C 266.188 272.621,263.728 269.035,263.067 268.100 L 261.864 266.400 258.932 266.400 L 256.000 266.400 256.000 324.600 " stroke="none" fill="#fbfbfb" fill-rule="evenodd"></path><path id="path2" d="M154.200 63.201 C 154.063 63.421,154.424 63.781,155.002 64.001 C 156.522 64.579,157.073 64.491,156.176 63.813 C 155.492 63.295,160.603 63.226,199.200 63.227 C 237.368 63.228,242.871 63.302,242.000 63.800 C 240.790 64.492,241.399 64.568,243.179 63.947 C 244.127 63.617,244.332 63.403,243.939 63.154 C 243.150 62.654,154.509 62.700,154.200 63.201 M238.200 64.800 C 237.111 65.077,237.093 65.107,238.000 65.125 C 238.550 65.135,239.360 64.989,239.800 64.800 C 240.786 64.376,239.866 64.376,238.200 64.800 M232.600 66.000 C 231.511 66.277,231.493 66.307,232.400 66.325 C 232.950 66.335,233.760 66.189,234.200 66.000 C 235.186 65.576,234.266 65.576,232.600 66.000 M149.267 69.067 C 148.350 70.753,147.661 72.194,147.736 72.269 C 147.810 72.343,148.582 71.098,149.450 69.502 L 151.030 66.600 153.015 66.664 C 154.523 66.712,154.760 66.649,154.000 66.403 C 151.443 65.576,151.041 65.802,149.267 69.067 M244.000 66.420 C 243.315 66.652,243.605 66.688,244.920 66.531 C 246.492 66.345,246.950 66.439,247.443 67.052 C 248.008 67.755,248.018 67.746,247.608 66.900 C 247.144 65.942,245.894 65.776,244.000 66.420 M227.000 67.200 C 225.911 67.477,225.893 67.507,226.800 67.525 C 227.350 67.535,228.160 67.389,228.600 67.200 C 229.586 66.776,228.666 66.776,227.000 67.200 M158.000 67.600 C 158.550 67.776,159.360 67.920,159.800 67.920 C 160.433 67.920,160.392 67.854,159.600 67.600 C 159.050 67.424,158.240 67.280,157.800 67.280 C 157.167 67.280,157.208 67.346,158.000 67.600 M238.400 67.600 C 237.608 67.854,237.567 67.920,238.200 67.920 C 238.640 67.920,239.450 67.776,240.000 67.600 C 240.792 67.346,240.833 67.280,240.200 67.280 C 239.760 67.280,238.950 67.424,238.400 67.600 M221.600 68.400 C 220.796 68.657,220.757 68.723,221.400 68.732 C 221.840 68.738,222.560 68.589,223.000 68.400 C 224.019 67.962,222.968 67.962,221.600 68.400 M249.000 70.000 C 249.557 71.100,250.103 72.000,250.213 72.000 C 250.323 72.000,249.957 71.100,249.400 70.000 C 248.843 68.900,248.297 68.000,248.187 68.000 C 248.077 68.000,248.443 68.900,249.000 70.000 M163.600 68.800 C 164.150 68.976,164.960 69.120,165.400 69.120 C 166.033 69.120,165.992 69.054,165.200 68.800 C 164.650 68.624,163.840 68.480,163.400 68.480 C 162.767 68.480,162.808 68.546,163.600 68.800 M216.000 69.600 C 215.196 69.857,215.157 69.923,215.800 69.932 C 216.240 69.938,216.960 69.789,217.400 69.600 C 218.419 69.162,217.368 69.162,216.000 69.600 M169.200 70.000 C 169.750 70.176,170.560 70.320,171.000 70.320 C 171.633 70.320,171.592 70.254,170.800 70.000 C 170.250 69.824,169.440 69.680,169.000 69.680 C 168.367 69.680,168.408 69.746,169.200 70.000 M210.400 70.800 C 209.608 71.054,209.567 71.120,210.200 71.120 C 210.640 71.120,211.450 70.976,212.000 70.800 C 212.792 70.546,212.833 70.480,212.200 70.480 C 211.760 70.480,210.950 70.624,210.400 70.800 M174.800 71.200 C 175.350 71.376,176.160 71.520,176.600 71.520 C 177.233 71.520,177.192 71.454,176.400 71.200 C 175.850 71.024,175.040 70.880,174.600 70.880 C 173.967 70.880,174.008 70.946,174.800 71.200 M204.800 72.000 C 204.008 72.254,203.967 72.320,204.600 72.320 C 205.040 72.320,205.850 72.176,206.400 72.000 C 207.192 71.746,207.233 71.680,206.600 71.680 C 206.160 71.680,205.350 71.824,204.800 72.000 M218.000 72.000 C 217.208 72.254,217.167 72.320,217.800 72.320 C 218.240 72.320,219.050 72.176,219.600 72.000 C 220.392 71.746,220.433 71.680,219.800 71.680 C 219.360 71.680,218.550 71.824,218.000 72.000 M180.400 72.400 C 180.950 72.576,181.760 72.720,182.200 72.720 C 182.833 72.720,182.792 72.654,182.000 72.400 C 181.450 72.224,180.640 72.080,180.200 72.080 C 179.567 72.080,179.608 72.146,180.400 72.400 M197.100 72.695 C 198.255 72.776,200.145 72.776,201.300 72.695 C 202.455 72.614,201.510 72.548,199.200 72.548 C 196.890 72.548,195.945 72.614,197.100 72.695 M146.400 74.400 C 145.951 75.280,145.674 76.000,145.784 76.000 C 145.894 76.000,146.351 75.280,146.800 74.400 C 147.249 73.520,147.526 72.800,147.416 72.800 C 147.306 72.800,146.849 73.520,146.400 74.400 M212.400 73.200 C 211.608 73.454,211.567 73.520,212.200 73.520 C 212.640 73.520,213.450 73.376,214.000 73.200 C 214.792 72.946,214.833 72.880,214.200 72.880 C 213.760 72.880,212.950 73.024,212.400 73.200 M186.000 73.600 C 186.550 73.776,187.360 73.920,187.800 73.920 C 188.433 73.920,188.392 73.854,187.600 73.600 C 187.050 73.424,186.240 73.280,185.800 73.280 C 185.167 73.280,185.208 73.346,186.000 73.600 M206.800 74.400 C 206.008 74.654,205.967 74.720,206.600 74.720 C 207.040 74.720,207.850 74.576,208.400 74.400 C 209.192 74.146,209.233 74.080,208.600 74.080 C 208.160 74.080,207.350 74.224,206.800 74.400 M251.800 75.200 C 252.141 75.860,252.511 76.400,252.621 76.400 C 252.731 76.400,252.541 75.860,252.200 75.200 C 251.859 74.540,251.489 74.000,251.379 74.000 C 251.269 74.000,251.459 74.540,251.800 75.200 M192.000 74.837 C 193.839 75.408,193.799 75.233,192.620 77.560 C 192.052 78.682,191.677 79.600,191.787 79.600 C 192.242 79.600,194.036 75.476,193.719 75.159 C 193.530 74.970,192.751 74.722,191.988 74.609 L 190.600 74.403 192.000 74.837 M205.800 78.800 C 206.357 79.900,206.903 80.800,207.013 80.800 C 207.123 80.800,206.757 79.900,206.200 78.800 C 205.643 77.700,205.097 76.800,204.987 76.800 C 204.877 76.800,205.243 77.700,205.800 78.800 M253.770 79.851 C 253.751 80.696,253.864 81.026,254.063 80.711 C 254.473 80.065,254.494 78.905,254.100 78.663 C 253.935 78.562,253.786 79.097,253.770 79.851 M144.028 80.092 C 143.982 80.565,145.286 83.648,145.458 83.475 C 145.545 83.388,145.266 82.525,144.837 81.558 C 144.408 80.591,144.044 79.931,144.028 80.092 M190.200 82.000 C 189.643 83.100,189.277 84.000,189.387 84.000 C 189.497 84.000,190.043 83.100,190.600 82.000 C 191.157 80.900,191.523 80.000,191.413 80.000 C 191.303 80.000,190.757 80.900,190.200 82.000 M208.200 83.200 C 208.757 84.300,209.303 85.200,209.413 85.200 C 209.523 85.200,209.157 84.300,208.600 83.200 C 208.043 82.100,207.497 81.200,207.387 81.200 C 207.277 81.200,207.643 82.100,208.200 83.200 M252.865 82.617 C 252.195 84.088,252.323 84.402,253.047 83.065 C 253.386 82.440,253.588 81.854,253.496 81.763 C 253.405 81.671,253.121 82.056,252.865 82.617 M123.788 83.219 C 123.641 83.458,123.628 83.761,123.760 83.893 C 123.892 84.025,124.000 83.923,124.000 83.667 C 124.000 83.325,126.415 83.200,133.023 83.200 L 142.045 83.200 143.029 85.300 C 143.570 86.455,143.901 86.950,143.764 86.400 C 143.628 85.850,143.210 84.860,142.836 84.200 L 142.156 83.000 133.106 82.893 C 126.922 82.819,123.971 82.923,123.788 83.219 M254.940 85.018 C 254.378 86.246,253.994 87.327,254.087 87.421 C 254.181 87.514,254.666 86.602,255.167 85.395 L 256.076 83.200 265.240 83.200 L 274.404 83.200 274.302 118.100 L 274.200 153.000 254.938 153.000 C 244.344 153.000,235.760 153.135,235.862 153.300 C 236.112 153.704,273.665 153.674,274.302 153.269 C 274.700 153.016,274.783 145.691,274.702 117.975 L 274.600 83.000 265.281 82.893 L 255.963 82.785 254.940 85.018 M188.000 86.000 C 187.551 86.880,187.274 87.600,187.384 87.600 C 187.494 87.600,187.951 86.880,188.400 86.000 C 188.849 85.120,189.126 84.400,189.016 84.400 C 188.906 84.400,188.449 85.120,188.000 86.000 M210.600 87.600 C 211.157 88.700,211.703 89.600,211.813 89.600 C 211.923 89.600,211.557 88.700,211.000 87.600 C 210.443 86.500,209.897 85.600,209.787 85.600 C 209.677 85.600,210.043 86.500,210.600 87.600 M146.428 86.200 C 146.428 86.420,146.686 87.050,147.000 87.600 C 147.314 88.150,147.572 88.420,147.572 88.200 C 147.572 87.980,147.314 87.350,147.000 86.800 C 146.686 86.250,146.428 85.980,146.428 86.200 M253.265 89.017 C 252.595 90.488,252.723 90.802,253.447 89.465 C 253.786 88.840,253.988 88.254,253.896 88.163 C 253.805 88.071,253.521 88.456,253.265 89.017 M147.600 88.929 C 147.600 89.432,149.700 94.433,149.849 94.285 C 149.931 94.202,149.531 92.979,148.959 91.567 C 147.947 89.066,147.600 88.393,147.600 88.929 M213.000 92.000 C 213.557 93.100,214.103 94.000,214.213 94.000 C 214.323 94.000,213.957 93.100,213.400 92.000 C 212.843 90.900,212.297 90.000,212.187 90.000 C 212.077 90.000,212.443 90.900,213.000 92.000 M146.014 92.454 C 146.006 92.594,146.263 93.314,146.584 94.054 C 146.906 94.794,147.169 95.130,147.170 94.800 C 147.172 94.224,146.043 91.934,146.014 92.454 M251.067 94.467 C 250.705 95.388,250.474 96.207,250.554 96.288 C 250.634 96.368,251.000 95.683,251.367 94.767 C 251.733 93.850,251.964 93.031,251.879 92.946 C 251.794 92.861,251.429 93.545,251.067 94.467 M215.400 96.400 C 215.957 97.500,216.503 98.400,216.613 98.400 C 216.723 98.400,216.357 97.500,215.800 96.400 C 215.243 95.300,214.697 94.400,214.587 94.400 C 214.477 94.400,214.843 95.300,215.400 96.400 M182.400 96.400 C 181.951 97.280,181.674 98.000,181.784 98.000 C 181.894 98.000,182.351 97.280,182.800 96.400 C 183.249 95.520,183.526 94.800,183.416 94.800 C 183.306 94.800,182.849 95.520,182.400 96.400 M247.267 96.380 C 247.033 97.051,246.927 97.600,247.031 97.600 C 247.301 97.600,248.056 95.522,247.857 95.324 C 247.767 95.233,247.501 95.708,247.267 96.380 M147.667 96.820 C 147.901 97.492,148.167 97.967,148.257 97.876 C 148.456 97.678,147.701 95.600,147.431 95.600 C 147.327 95.600,147.433 96.149,147.667 96.820 M150.846 97.000 C 150.853 97.220,151.206 98.120,151.629 99.000 C 152.052 99.880,152.286 100.150,152.149 99.600 C 151.867 98.467,150.825 96.388,150.846 97.000 M249.253 98.853 C 248.780 99.993,248.458 100.992,248.539 101.072 C 248.620 101.153,249.073 100.286,249.547 99.147 C 250.020 98.007,250.342 97.008,250.261 96.928 C 250.180 96.847,249.727 97.714,249.253 98.853 M217.800 100.800 C 218.357 101.900,218.903 102.800,219.013 102.800 C 219.123 102.800,218.757 101.900,218.200 100.800 C 217.643 99.700,217.097 98.800,216.987 98.800 C 216.877 98.800,217.243 99.700,217.800 100.800 M152.428 101.000 C 152.428 101.220,152.686 101.850,153.000 102.400 C 153.314 102.950,153.572 103.220,153.572 103.000 C 153.572 102.780,153.314 102.150,153.000 101.600 C 152.686 101.050,152.428 100.780,152.428 101.000 M247.467 103.267 C 247.105 104.188,246.874 105.007,246.954 105.088 C 247.034 105.168,247.400 104.483,247.767 103.567 C 248.133 102.650,248.364 101.831,248.279 101.746 C 248.194 101.661,247.829 102.345,247.467 103.267 M219.200 103.377 C 219.200 103.673,220.867 106.400,221.048 106.400 C 221.140 106.400,220.849 105.680,220.400 104.800 C 219.684 103.396,219.200 102.822,219.200 103.377 M243.667 105.180 C 243.433 105.851,243.327 106.400,243.431 106.400 C 243.701 106.400,244.456 104.322,244.257 104.124 C 244.167 104.033,243.901 104.508,243.667 105.180 M151.267 105.620 C 151.501 106.292,151.767 106.767,151.857 106.676 C 152.056 106.478,151.301 104.400,151.031 104.400 C 150.927 104.400,151.033 104.949,151.267 105.620 M154.446 105.800 C 154.453 106.020,154.806 106.920,155.229 107.800 C 155.652 108.680,155.886 108.950,155.749 108.400 C 155.467 107.267,154.425 105.188,154.446 105.800 M221.206 106.929 C 221.199 107.329,223.207 110.800,223.446 110.800 C 223.625 110.800,222.319 108.222,221.622 107.200 C 221.396 106.870,221.209 106.748,221.206 106.929 M245.265 108.617 C 244.595 110.088,244.723 110.402,245.447 109.065 C 245.786 108.440,245.988 107.854,245.896 107.763 C 245.805 107.671,245.521 108.056,245.265 108.617 M175.200 109.600 C 174.751 110.480,174.474 111.200,174.584 111.200 C 174.694 111.200,175.151 110.480,175.600 109.600 C 176.049 108.720,176.326 108.000,176.216 108.000 C 176.106 108.000,175.649 108.720,175.200 109.600 M156.028 109.800 C 156.028 110.020,156.286 110.650,156.600 111.200 C 156.914 111.750,157.172 112.020,157.172 111.800 C 157.172 111.580,156.914 110.950,156.600 110.400 C 156.286 109.850,156.028 109.580,156.028 109.800 M241.265 111.017 C 240.595 112.488,240.723 112.802,241.447 111.465 C 241.786 110.840,241.988 110.254,241.896 110.163 C 241.805 110.071,241.521 110.456,241.265 111.017 M243.867 112.067 C 243.505 112.988,243.274 113.807,243.354 113.888 C 243.434 113.968,243.800 113.283,244.167 112.367 C 244.533 111.450,244.764 110.631,244.679 110.546 C 244.594 110.461,244.229 111.145,243.867 112.067 M172.800 114.000 C 172.351 114.880,172.074 115.600,172.184 115.600 C 172.294 115.600,172.751 114.880,173.200 114.000 C 173.649 113.120,173.926 112.400,173.816 112.400 C 173.706 112.400,173.249 113.120,172.800 114.000 M154.867 114.420 C 155.101 115.092,155.367 115.567,155.457 115.476 C 155.656 115.278,154.901 113.200,154.631 113.200 C 154.527 113.200,154.633 113.749,154.867 114.420 M225.600 115.200 C 226.049 116.080,226.506 116.800,226.616 116.800 C 226.726 116.800,226.449 116.080,226.000 115.200 C 225.551 114.320,225.094 113.600,224.984 113.600 C 224.874 113.600,225.151 114.320,225.600 115.200 M158.046 114.600 C 158.053 114.820,158.406 115.720,158.829 116.600 C 159.252 117.480,159.486 117.750,159.349 117.200 C 159.067 116.067,158.025 113.988,158.046 114.600 M241.032 119.032 C 240.445 120.498,240.032 121.765,240.115 121.848 C 240.198 121.931,240.743 120.796,241.326 119.326 C 241.910 117.856,242.322 116.589,242.243 116.509 C 242.164 116.430,241.619 117.565,241.032 119.032 M170.400 118.400 C 169.951 119.280,169.674 120.000,169.784 120.000 C 169.894 120.000,170.351 119.280,170.800 118.400 C 171.249 117.520,171.526 116.800,171.416 116.800 C 171.306 116.800,170.849 117.520,170.400 118.400 M228.200 120.000 C 228.757 121.100,229.303 122.000,229.413 122.000 C 229.523 122.000,229.157 121.100,228.600 120.000 C 228.043 118.900,227.497 118.000,227.387 118.000 C 227.277 118.000,227.643 118.900,228.200 120.000 M160.428 120.600 C 160.428 120.820,160.686 121.450,161.000 122.000 C 161.314 122.550,161.572 122.820,161.572 122.600 C 161.572 122.380,161.314 121.750,161.000 121.200 C 160.686 120.650,160.428 120.380,160.428 120.600 M168.000 122.800 C 167.551 123.680,167.274 124.400,167.384 124.400 C 167.494 124.400,167.951 123.680,168.400 122.800 C 168.849 121.920,169.126 121.200,169.016 121.200 C 168.906 121.200,168.449 121.920,168.000 122.800 M230.600 124.400 C 231.157 125.500,231.703 126.400,231.813 126.400 C 231.923 126.400,231.557 125.500,231.000 124.400 C 230.443 123.300,229.897 122.400,229.787 122.400 C 229.677 122.400,230.043 123.300,230.600 124.400 M239.265 123.417 C 238.595 124.888,238.723 125.202,239.447 123.865 C 239.786 123.240,239.988 122.654,239.896 122.563 C 239.805 122.471,239.521 122.856,239.265 123.417 M161.628 123.292 C 161.582 123.765,162.886 126.848,163.058 126.675 C 163.145 126.588,162.866 125.725,162.437 124.758 C 162.008 123.791,161.644 123.131,161.628 123.292 M235.467 125.267 C 235.105 126.188,234.874 127.007,234.954 127.088 C 235.034 127.168,235.400 126.483,235.767 125.567 C 236.133 124.650,236.364 123.831,236.279 123.746 C 236.194 123.661,235.829 124.345,235.467 125.267 M237.432 127.832 C 236.845 129.298,236.432 130.565,236.515 130.648 C 236.598 130.731,237.143 129.596,237.726 128.126 C 238.310 126.656,238.722 125.389,238.643 125.309 C 238.564 125.230,238.019 126.365,237.432 127.832 M165.400 127.600 C 164.658 129.034,164.268 129.103,163.688 127.900 C 163.449 127.405,163.242 127.191,163.227 127.424 C 163.179 128.176,164.264 129.331,164.742 129.036 C 165.244 128.725,166.549 126.400,166.221 126.400 C 166.111 126.400,165.741 126.940,165.400 127.600 M232.591 127.900 C 232.937 128.615,233.360 129.200,233.530 129.200 C 233.971 129.200,234.800 128.314,234.800 127.844 C 234.800 127.625,234.519 127.796,234.175 128.224 C 233.792 128.699,233.476 128.828,233.360 128.557 C 233.256 128.313,232.899 127.773,232.566 127.357 C 232.055 126.718,232.059 126.802,232.591 127.900 M161.429 130.400 C 161.576 130.950,161.864 131.670,162.067 132.000 C 162.325 132.417,162.357 132.295,162.171 131.600 C 162.024 131.050,161.736 130.330,161.533 130.000 C 161.275 129.583,161.243 129.705,161.429 130.400 M162.396 142.800 L 162.200 153.000 143.226 153.104 C 128.327 153.186,124.176 153.100,123.896 152.704 C 123.629 152.327,123.580 152.352,123.703 152.800 C 123.930 153.631,162.301 153.924,162.618 153.097 C 162.726 152.816,162.764 148.089,162.703 142.593 L 162.592 132.600 162.396 142.800 M235.373 142.800 C 235.373 148.190,235.430 150.395,235.499 147.700 C 235.568 145.005,235.568 140.595,235.499 137.900 C 235.430 135.205,235.373 137.410,235.373 142.800 M126.584 159.700 C 126.163 160.799,126.599 207.333,127.031 207.477 C 127.268 207.556,129.024 205.276,130.933 202.410 C 132.842 199.545,134.315 197.200,134.206 197.200 C 134.098 197.200,132.484 199.483,130.620 202.274 C 128.473 205.490,127.150 207.136,127.009 206.769 C 126.887 206.450,126.835 195.617,126.894 182.695 C 126.952 169.773,126.949 159.200,126.887 159.200 C 126.826 159.200,126.689 159.425,126.584 159.700 M158.619 159.630 C 158.765 159.867,157.335 162.387,155.441 165.230 C 153.546 168.074,152.084 170.400,152.190 170.400 C 152.506 170.400,158.896 160.720,159.103 159.928 C 159.208 159.527,159.082 159.200,158.823 159.200 C 158.564 159.200,158.472 159.394,158.619 159.630 M238.800 159.622 C 238.800 160.094,241.917 164.800,242.230 164.800 C 242.340 164.800,241.694 163.717,240.795 162.393 C 239.897 161.070,239.270 159.810,239.404 159.593 C 239.538 159.377,239.457 159.200,239.224 159.200 C 238.991 159.200,238.800 159.390,238.800 159.622 M270.790 159.463 C 271.302 159.717,271.365 206.800,270.853 206.800 C 270.662 206.800,270.030 206.080,269.447 205.200 C 268.865 204.320,268.284 203.600,268.157 203.600 C 267.762 203.600,270.579 207.326,271.108 207.503 C 271.503 207.634,271.585 202.673,271.503 183.568 C 271.421 164.421,271.295 159.445,270.890 159.363 C 270.610 159.306,270.565 159.351,270.790 159.463 M243.077 166.431 C 243.475 167.108,244.056 167.873,244.368 168.131 C 244.680 168.389,244.432 167.835,243.815 166.900 C 242.520 164.937,242.009 164.612,243.077 166.431 M158.153 166.100 C 157.990 166.375,157.590 167.050,157.263 167.600 C 156.869 168.261,157.092 168.125,157.920 167.200 L 159.172 165.800 159.086 186.800 L 159.000 207.800 145.100 207.905 C 130.156 208.018,130.503 208.068,131.832 205.989 L 132.464 205.000 131.615 205.965 C 129.655 208.194,129.693 208.200,145.205 208.200 L 159.400 208.200 159.504 186.900 C 159.609 165.131,159.521 163.778,158.153 166.100 M238.675 165.858 C 238.152 166.381,238.352 207.392,238.880 207.920 C 239.235 208.275,242.987 208.400,253.280 208.400 L 267.200 208.400 267.154 207.500 C 267.118 206.815,267.063 206.768,266.923 207.305 C 266.751 207.964,265.832 208.003,252.870 207.905 L 239.000 207.800 238.896 186.900 C 238.837 174.931,238.944 166.000,239.148 166.000 C 239.343 166.000,239.749 166.316,240.051 166.701 C 240.554 167.344,240.564 167.337,240.166 166.623 C 239.679 165.750,239.087 165.446,238.675 165.858 M241.785 169.500 C 242.402 170.435,242.983 171.200,243.076 171.200 C 243.364 171.200,241.833 168.766,241.232 168.269 C 240.920 168.011,241.168 168.565,241.785 169.500 M146.800 183.200 C 141.517 191.120,137.284 197.600,137.394 197.600 C 137.504 197.600,141.917 191.120,147.200 183.200 C 152.483 175.280,156.716 168.800,156.606 168.800 C 156.496 168.800,152.083 175.280,146.800 183.200 M245.013 169.200 C 245.766 170.568,250.036 176.800,250.221 176.800 C 250.444 176.800,245.725 169.629,245.088 169.000 C 244.815 168.731,244.791 168.796,245.013 169.200 M150.585 172.500 C 149.968 173.435,149.720 173.989,150.032 173.731 C 150.633 173.234,152.164 170.800,151.876 170.800 C 151.783 170.800,151.202 171.565,150.585 172.500 M248.045 178.900 C 252.328 185.340,254.442 188.309,253.385 186.400 C 252.568 184.926,243.568 171.600,243.389 171.600 C 243.279 171.600,245.374 174.885,248.045 178.900 M148.185 176.100 C 147.568 177.035,147.320 177.589,147.632 177.331 C 148.233 176.834,149.764 174.400,149.476 174.400 C 149.383 174.400,148.802 175.165,148.185 176.100 M251.077 178.431 C 251.475 179.108,252.056 179.873,252.368 180.131 C 252.680 180.389,252.432 179.835,251.815 178.900 C 250.520 176.937,250.009 176.612,251.077 178.431 M253.477 182.031 C 253.875 182.708,254.456 183.473,254.768 183.731 C 255.080 183.989,254.832 183.435,254.215 182.500 C 252.920 180.537,252.409 180.212,253.477 182.031 M255.877 185.631 C 256.275 186.308,256.856 187.073,257.168 187.331 C 257.480 187.589,257.232 187.035,256.615 186.100 C 255.320 184.137,254.809 183.812,255.877 185.631 M256.400 191.400 C 257.950 193.710,259.308 195.600,259.418 195.600 C 259.528 195.600,258.350 193.710,256.800 191.400 C 255.250 189.090,253.892 187.200,253.782 187.200 C 253.672 187.200,254.850 189.090,256.400 191.400 M258.277 189.231 C 258.675 189.908,259.256 190.673,259.568 190.931 C 259.880 191.189,259.632 190.635,259.015 189.700 C 257.720 187.737,257.209 187.412,258.277 189.231 M138.093 191.100 C 137.057 192.596,136.721 193.200,136.923 193.200 C 137.017 193.200,137.570 192.480,138.153 191.600 C 139.336 189.812,139.284 189.379,138.093 191.100 M261.162 193.529 C 261.405 193.984,261.801 194.477,262.042 194.626 C 262.356 194.820,262.354 194.662,262.038 194.071 C 261.795 193.616,261.399 193.123,261.158 192.974 C 260.844 192.780,260.846 192.938,261.162 193.529 M135.693 194.700 C 134.657 196.196,134.321 196.800,134.523 196.800 C 134.617 196.800,135.170 196.080,135.753 195.200 C 136.936 193.412,136.884 192.979,135.693 194.700 M260.277 197.231 C 260.675 197.908,261.256 198.673,261.568 198.931 C 261.880 199.189,261.632 198.635,261.015 197.700 C 259.720 195.737,259.209 195.412,260.277 197.231 M263.562 197.129 C 263.805 197.584,264.201 198.077,264.442 198.226 C 264.756 198.420,264.754 198.262,264.438 197.671 C 264.195 197.216,263.799 196.723,263.558 196.574 C 263.244 196.380,263.246 196.538,263.562 197.129 M135.785 199.700 C 135.168 200.635,134.920 201.189,135.232 200.931 C 135.833 200.434,137.364 198.000,137.076 198.000 C 136.983 198.000,136.402 198.765,135.785 199.700 M262.667 200.731 C 263.070 201.463,263.654 202.273,263.965 202.531 C 264.725 203.161,263.978 201.820,262.778 200.400 L 261.933 199.400 262.667 200.731 M265.923 200.600 C 266.173 201.040,266.757 201.850,267.222 202.400 L 268.067 203.400 267.333 202.069 C 266.930 201.337,266.346 200.527,266.035 200.269 C 265.559 199.875,265.541 199.927,265.923 200.600 M134.111 202.100 C 133.329 203.111,133.063 203.732,133.536 203.440 C 134.010 203.147,134.957 201.600,134.663 201.600 C 134.572 201.600,134.324 201.825,134.111 202.100 M265.562 205.129 C 265.805 205.584,266.201 206.077,266.442 206.226 C 266.756 206.420,266.754 206.262,266.438 205.671 C 266.195 205.216,265.799 204.723,265.558 204.574 C 265.244 204.380,265.246 204.538,265.562 205.129 M249.680 259.680 C 249.315 260.045,249.200 267.564,249.200 291.080 L 249.200 322.000 240.049 322.000 C 232.625 322.000,230.809 322.107,230.426 322.569 C 229.750 323.383,230.040 326.894,230.800 327.099 C 231.269 327.226,231.285 327.180,230.876 326.892 C 230.532 326.650,230.394 325.847,230.476 324.561 L 230.600 322.600 240.000 322.400 L 249.400 322.200 249.600 291.000 L 249.800 259.800 257.000 259.586 L 264.200 259.372 257.180 259.286 C 252.152 259.224,250.024 259.336,249.680 259.680 M264.900 259.876 C 265.285 259.976,265.601 260.180,265.602 260.329 C 265.603 260.478,266.062 261.140,266.622 261.800 C 267.640 262.999,267.640 262.999,266.567 261.300 C 265.976 260.364,265.203 259.621,264.847 259.646 C 264.307 259.685,264.316 259.723,264.900 259.876 M213.958 262.900 C 208.433 269.886,193.600 289.941,193.602 290.424 C 193.604 290.741,193.860 290.511,194.171 289.914 C 194.764 288.778,213.972 263.166,215.230 261.834 C 216.095 260.919,220.687 263.876,220.234 265.056 C 220.108 265.384,220.183 265.534,220.405 265.397 C 221.137 264.945,220.810 264.452,218.563 262.622 C 215.800 260.371,215.966 260.361,213.958 262.900 M328.189 263.300 C 327.128 264.675,326.089 266.025,325.881 266.300 C 325.672 266.575,325.608 266.800,325.738 266.800 C 325.868 266.800,326.722 265.788,327.636 264.552 C 328.549 263.315,329.635 261.965,330.048 261.552 C 330.462 261.138,330.647 260.800,330.459 260.800 C 330.271 260.800,329.250 261.925,328.189 263.300 M60.983 262.100 C 60.877 262.375,60.840 270.250,60.900 279.600 L 61.009 296.600 61.104 279.286 L 61.200 261.971 70.400 262.086 C 75.461 262.149,79.601 262.065,79.600 261.900 C 79.600 261.343,61.198 261.541,60.983 262.100 M132.090 262.092 C 131.856 262.374,131.558 263.143,131.429 263.802 C 131.215 264.887,131.243 264.868,131.732 263.600 L 132.270 262.200 137.804 262.088 C 141.949 262.005,143.429 262.105,143.700 262.488 C 143.974 262.877,144.022 262.856,143.898 262.400 C 143.674 261.578,132.753 261.292,132.090 262.092 M144.056 263.600 C 144.056 263.930,144.211 264.560,144.400 265.000 C 144.617 265.504,144.744 265.578,144.744 265.200 C 144.744 264.870,144.589 264.240,144.400 263.800 C 144.183 263.296,144.056 263.222,144.056 263.600 M268.585 264.700 C 269.202 265.635,269.783 266.400,269.876 266.400 C 270.164 266.400,268.633 263.966,268.032 263.469 C 267.720 263.211,267.968 263.765,268.585 264.700 M334.674 264.362 C 334.814 264.897,333.252 267.279,329.428 272.362 C 326.434 276.343,324.073 279.600,324.183 279.600 C 324.597 279.600,335.200 265.197,335.200 264.635 C 335.200 264.312,335.037 263.946,334.837 263.823 C 334.638 263.700,334.564 263.942,334.674 264.362 M130.629 266.229 C 130.481 266.815,130.438 267.372,130.532 267.466 C 130.627 267.560,130.824 267.158,130.971 266.571 C 131.119 265.985,131.162 265.428,131.068 265.334 C 130.973 265.240,130.776 265.642,130.629 266.229 M255.785 266.500 C 255.680 266.775,255.641 293.100,255.697 325.000 L 255.800 383.000 258.600 383.026 L 261.400 383.052 258.700 382.909 L 256.000 382.765 256.000 324.582 L 256.000 266.400 258.885 266.400 C 261.536 266.400,261.847 266.489,262.718 267.500 L 263.666 268.600 262.806 267.300 C 261.866 265.880,256.263 265.242,255.785 266.500 M271.600 269.200 C 272.496 270.520,273.320 271.600,273.430 271.600 C 273.540 271.600,272.896 270.520,272.000 269.200 C 271.104 267.880,270.280 266.800,270.170 266.800 C 270.060 266.800,270.704 267.880,271.600 269.200 M322.753 270.500 C 321.387 272.315,320.097 274.025,319.886 274.300 C 319.675 274.575,319.592 274.800,319.702 274.800 C 319.812 274.800,321.188 273.090,322.759 271.000 C 324.330 268.910,325.530 267.200,325.425 267.200 C 325.321 267.200,324.119 268.685,322.753 270.500 M73.400 267.984 L 67.400 268.200 67.392 281.600 L 67.383 295.000 67.497 281.700 L 67.611 268.400 73.382 268.400 C 76.798 268.400,79.254 268.237,79.400 268.000 C 79.536 267.780,79.592 267.638,79.524 267.684 C 79.456 267.730,76.700 267.865,73.400 267.984 M136.800 268.336 C 136.800 268.550,137.178 268.626,137.641 268.505 C 138.128 268.378,138.646 268.520,138.871 268.843 C 139.195 269.306,139.234 269.299,139.100 268.800 C 138.922 268.140,136.800 267.711,136.800 268.336 M265.600 271.800 C 266.713 273.450,267.714 274.800,267.824 274.800 C 267.934 274.800,267.113 273.450,266.000 271.800 C 264.887 270.150,263.886 268.800,263.776 268.800 C 263.666 268.800,264.487 270.150,265.600 271.800 M129.429 270.229 C 129.281 270.815,129.238 271.372,129.332 271.466 C 129.427 271.560,129.624 271.158,129.771 270.571 C 129.919 269.985,129.962 269.428,129.868 269.334 C 129.773 269.240,129.576 269.642,129.429 270.229 M208.883 280.300 C 201.088 290.691,199.275 293.200,200.287 292.200 C 201.047 291.449,217.612 269.200,217.411 269.200 C 217.301 269.200,213.464 274.195,208.883 280.300 M135.829 271.429 C 135.681 272.015,135.638 272.572,135.732 272.666 C 135.827 272.760,136.024 272.358,136.171 271.771 C 136.319 271.185,136.362 270.628,136.268 270.534 C 136.173 270.440,135.976 270.842,135.829 271.429 M139.661 271.200 C 139.661 271.530,139.903 272.430,140.200 273.200 C 140.497 273.970,140.739 274.330,140.739 274.000 C 140.739 273.670,140.497 272.770,140.200 272.000 C 139.903 271.230,139.661 270.870,139.661 271.200 M146.456 271.200 C 146.456 271.530,146.611 272.160,146.800 272.600 C 147.017 273.104,147.144 273.178,147.144 272.800 C 147.144 272.470,146.989 271.840,146.800 271.400 C 146.583 270.896,146.456 270.822,146.456 271.200 M276.454 276.263 C 278.074 278.718,279.469 280.660,279.553 280.577 C 279.727 280.407,274.997 273.320,274.096 272.400 C 273.773 272.070,274.834 273.809,276.454 276.263 M135.029 274.229 C 134.881 274.815,134.838 275.372,134.932 275.466 C 135.027 275.560,135.224 275.158,135.371 274.571 C 135.519 273.985,135.562 273.428,135.468 273.334 C 135.373 273.240,135.176 273.642,135.029 274.229 M128.229 274.629 C 128.081 275.215,128.038 275.772,128.132 275.866 C 128.227 275.960,128.424 275.558,128.571 274.971 C 128.719 274.385,128.762 273.828,128.668 273.734 C 128.573 273.640,128.376 274.042,128.229 274.629 M268.280 275.714 C 268.456 275.996,269.545 277.608,270.700 279.296 L 272.800 282.364 272.800 295.893 C 272.800 306.577,272.687 309.588,272.261 310.211 C 270.939 312.148,270.323 313.200,270.512 313.200 C 270.625 313.200,271.275 312.329,271.958 311.265 L 273.200 309.330 273.200 295.850 L 273.200 282.369 270.790 278.785 C 269.464 276.813,268.285 275.200,268.170 275.200 C 268.055 275.200,268.104 275.431,268.280 275.714 M317.959 276.900 C 315.943 279.522,315.889 279.600,316.103 279.600 C 316.213 279.600,317.051 278.610,317.965 277.400 C 318.878 276.190,319.545 275.200,319.447 275.200 C 319.348 275.200,318.679 275.965,317.959 276.900 M141.661 277.600 C 141.661 277.930,141.903 278.830,142.200 279.600 C 142.497 280.370,142.739 280.730,142.739 280.400 C 142.739 280.070,142.497 279.170,142.200 278.400 C 141.903 277.630,141.661 277.270,141.661 277.600 M127.029 278.629 C 126.881 279.215,126.838 279.772,126.932 279.866 C 127.027 279.960,127.224 279.558,127.371 278.971 C 127.519 278.385,127.562 277.828,127.468 277.734 C 127.373 277.640,127.176 278.042,127.029 278.629 M312.499 284.100 C 310.764 286.355,309.043 288.645,308.673 289.189 C 308.055 290.097,308.000 293.003,308.000 324.528 L 308.000 358.878 315.855 369.339 C 320.175 375.093,324.069 380.160,324.508 380.600 C 324.947 381.040,321.503 376.326,316.853 370.124 L 308.400 358.848 308.400 324.487 L 308.400 290.125 312.207 285.063 C 314.302 282.278,315.933 280.000,315.834 280.000 C 315.734 280.000,314.233 281.845,312.499 284.100 M132.629 282.629 C 132.481 283.215,132.438 283.772,132.532 283.866 C 132.627 283.960,132.824 283.558,132.971 282.971 C 133.119 282.385,133.162 281.828,133.068 281.734 C 132.973 281.640,132.776 282.042,132.629 282.629 M125.829 283.029 C 125.681 283.615,125.638 284.172,125.732 284.266 C 125.827 284.360,126.024 283.958,126.171 283.371 C 126.319 282.785,126.362 282.228,126.268 282.134 C 126.173 282.040,125.976 282.442,125.829 283.029 M143.230 282.622 C 143.213 282.854,143.637 284.294,144.170 285.822 C 144.704 287.350,145.154 288.410,145.170 288.178 C 145.187 287.946,144.763 286.506,144.230 284.978 C 143.696 283.450,143.246 282.390,143.230 282.622 M150.056 282.800 C 150.056 283.130,150.211 283.760,150.400 284.200 C 150.617 284.704,150.744 284.778,150.744 284.400 C 150.744 284.070,150.589 283.440,150.400 283.000 C 150.183 282.496,150.056 282.422,150.056 282.800 M124.629 287.029 C 124.481 287.615,124.438 288.172,124.532 288.266 C 124.627 288.360,124.824 287.958,124.971 287.371 C 125.119 286.785,125.162 286.228,125.068 286.134 C 124.973 286.040,124.776 286.442,124.629 287.029 M123.633 290.633 C 123.375 291.659,123.239 292.572,123.331 292.664 C 123.422 292.756,123.709 291.992,123.967 290.967 C 124.225 289.941,124.361 289.028,124.269 288.936 C 124.178 288.844,123.891 289.608,123.633 290.633 M145.261 289.200 C 145.261 289.530,145.503 290.430,145.800 291.200 C 146.097 291.970,146.339 292.330,146.339 292.000 C 146.339 291.670,146.097 290.770,145.800 290.000 C 145.503 289.230,145.261 288.870,145.261 289.200 M130.229 291.029 C 130.081 291.615,130.038 292.172,130.132 292.266 C 130.227 292.360,130.424 291.958,130.571 291.371 C 130.719 290.785,130.762 290.228,130.668 290.134 C 130.573 290.040,130.376 290.442,130.229 291.029 M314.592 307.200 L 314.600 322.200 344.700 322.204 L 374.800 322.208 344.805 322.101 L 314.810 321.995 314.697 307.097 L 314.585 292.200 314.592 307.200 M122.229 295.429 C 122.081 296.015,122.038 296.572,122.132 296.666 C 122.227 296.760,122.424 296.358,122.571 295.771 C 122.719 295.185,122.762 294.628,122.668 294.534 C 122.573 294.440,122.376 294.842,122.229 295.429 M147.661 296.800 C 147.661 297.130,147.903 298.030,148.200 298.800 C 148.497 299.570,148.739 299.930,148.739 299.600 C 148.739 299.270,148.497 298.370,148.200 297.600 C 147.903 296.830,147.661 296.470,147.661 296.800 M154.648 297.800 C 154.791 298.460,155.066 299.270,155.259 299.600 C 155.484 299.984,155.518 299.768,155.352 299.000 C 155.209 298.340,154.934 297.530,154.741 297.200 C 154.516 296.816,154.482 297.032,154.648 297.800 M121.233 299.033 C 120.975 300.059,120.839 300.972,120.931 301.064 C 121.022 301.156,121.309 300.392,121.567 299.367 C 121.825 298.341,121.961 297.428,121.869 297.336 C 121.778 297.244,121.491 298.008,121.233 299.033 M127.829 299.429 C 127.681 300.015,127.638 300.572,127.732 300.666 C 127.827 300.760,128.024 300.358,128.171 299.771 C 128.319 299.185,128.362 298.628,128.268 298.534 C 128.173 298.440,127.976 298.842,127.829 299.429 M64.400 303.200 C 65.504 305.400,66.497 307.200,66.607 307.200 C 66.717 307.200,65.904 305.400,64.800 303.200 C 63.696 301.000,62.703 299.200,62.593 299.200 C 62.483 299.200,63.296 301.000,64.400 303.200 M71.000 302.000 C 71.557 303.100,72.103 304.000,72.213 304.000 C 72.323 304.000,71.957 303.100,71.400 302.000 C 70.843 300.900,70.297 300.000,70.187 300.000 C 70.077 300.000,70.443 300.900,71.000 302.000 M148.861 300.800 C 148.861 301.130,149.103 302.030,149.400 302.800 C 149.697 303.570,149.939 303.930,149.939 303.600 C 149.939 303.270,149.697 302.370,149.400 301.600 C 149.103 300.830,148.861 300.470,148.861 300.800 M119.829 303.829 C 119.681 304.415,119.638 304.972,119.732 305.066 C 119.827 305.160,120.024 304.758,120.171 304.171 C 120.319 303.585,120.362 303.028,120.268 302.934 C 120.173 302.840,119.976 303.242,119.829 303.829 M156.856 304.800 C 156.856 305.130,157.011 305.760,157.200 306.200 C 157.417 306.704,157.544 306.778,157.544 306.400 C 157.544 306.070,157.389 305.440,157.200 305.000 C 156.983 304.496,156.856 304.422,156.856 304.800 M119.029 306.629 C 118.881 307.215,118.838 307.772,118.932 307.866 C 119.027 307.960,119.224 307.558,119.371 306.971 C 119.519 306.385,119.562 305.828,119.468 305.734 C 119.373 305.640,119.176 306.042,119.029 306.629 M150.462 306.000 C 150.462 306.330,150.794 307.500,151.200 308.600 C 151.606 309.700,151.938 310.330,151.938 310.000 C 151.938 309.670,151.606 308.500,151.200 307.400 C 150.794 306.300,150.462 305.670,150.462 306.000 M75.800 311.200 C 76.357 312.300,76.903 313.200,77.013 313.200 C 77.123 313.200,76.757 312.300,76.200 311.200 C 75.643 310.100,75.097 309.200,74.987 309.200 C 74.877 309.200,75.243 310.100,75.800 311.200 M69.600 313.200 C 70.485 314.960,71.299 316.400,71.409 316.400 C 71.519 316.400,70.885 314.960,70.000 313.200 C 69.115 311.440,68.301 310.000,68.191 310.000 C 68.081 310.000,68.715 311.440,69.600 313.200 M117.636 311.636 C 117.366 312.539,117.218 313.352,117.308 313.442 C 117.398 313.532,117.693 312.866,117.964 311.964 C 118.234 311.061,118.382 310.248,118.292 310.158 C 118.202 310.068,117.907 310.734,117.636 311.636 M278.694 312.103 L 277.988 313.400 278.794 312.456 C 279.480 311.652,279.846 310.794,279.500 310.803 C 279.445 310.804,279.082 311.389,278.694 312.103 M152.461 312.400 C 152.461 312.730,152.703 313.630,153.000 314.400 C 153.297 315.170,153.539 315.530,153.539 315.200 C 153.539 314.870,153.297 313.970,153.000 313.200 C 152.703 312.430,152.461 312.070,152.461 312.400 M159.256 312.400 C 159.256 312.730,159.411 313.360,159.600 313.800 C 159.817 314.304,159.944 314.378,159.944 314.000 C 159.944 313.670,159.789 313.040,159.600 312.600 C 159.383 312.096,159.256 312.022,159.256 312.400 M267.489 317.500 C 264.345 322.352,264.316 322.400,264.520 322.400 C 264.687 322.400,266.459 319.800,269.041 315.764 C 269.802 314.574,270.332 313.600,270.220 313.600 C 270.107 313.600,268.878 315.355,267.489 317.500 M276.721 315.100 C 274.551 318.403,274.317 318.800,274.542 318.800 C 274.733 318.800,276.307 316.491,277.746 314.100 C 278.460 312.914,277.617 313.736,276.721 315.100 M116.629 315.029 C 116.481 315.615,116.438 316.172,116.532 316.266 C 116.627 316.360,116.824 315.958,116.971 315.371 C 117.119 314.785,117.162 314.228,117.068 314.134 C 116.973 314.040,116.776 314.442,116.629 315.029 M160.456 316.400 C 160.456 316.730,160.611 317.360,160.800 317.800 C 161.017 318.304,161.144 318.378,161.144 318.000 C 161.144 317.670,160.989 317.040,160.800 316.600 C 160.583 316.096,160.456 316.022,160.456 316.400 M154.062 317.600 C 154.062 317.930,154.394 319.100,154.800 320.200 C 155.206 321.300,155.538 321.930,155.538 321.600 C 155.538 321.270,155.206 320.100,154.800 319.000 C 154.394 317.900,154.062 317.270,154.062 317.600 M80.800 320.801 L 82.409 324.001 82.305 355.762 C 82.247 373.231,82.335 387.440,82.500 387.338 C 82.665 387.236,82.800 372.939,82.800 355.568 L 82.800 323.982 81.196 320.791 C 80.313 319.036,79.501 317.600,79.391 317.600 C 79.281 317.600,79.915 319.040,80.800 320.801 M115.222 320.122 L 114.696 322.000 105.172 322.000 C 99.933 322.000,95.564 322.135,95.461 322.300 C 95.359 322.465,99.695 322.510,105.098 322.400 L 114.921 322.200 115.467 320.620 C 115.768 319.751,115.954 318.861,115.881 318.642 C 115.808 318.423,115.511 319.089,115.222 320.122 M73.390 320.380 C 73.725 321.029,74.000 321.659,74.000 321.780 C 74.000 321.901,60.882 322.000,44.849 322.000 C 20.133 322.000,15.626 322.087,15.226 322.569 C 14.550 323.383,14.840 326.894,15.600 327.099 C 16.069 327.226,16.085 327.180,15.676 326.892 C 15.332 326.650,15.194 325.847,15.276 324.561 L 15.400 322.600 44.900 322.497 C 65.049 322.427,74.400 322.263,74.400 321.978 C 74.400 321.452,73.248 319.200,72.979 319.200 C 72.869 319.200,73.054 319.731,73.390 320.380 M272.253 321.991 C 271.674 322.867,271.200 323.717,271.200 323.880 C 271.200 324.044,271.442 323.823,271.739 323.389 C 273.041 321.481,273.678 320.400,273.499 320.400 C 273.393 320.400,272.832 321.116,272.253 321.991 M162.163 321.690 C 162.241 322.080,164.577 322.247,172.095 322.400 C 177.501 322.510,181.841 322.465,181.739 322.300 C 181.636 322.135,177.258 322.000,172.010 322.000 C 165.891 322.000,162.394 321.853,162.263 321.590 C 162.151 321.365,162.106 321.410,162.163 321.690 M120.965 322.884 C 120.546 324.025,120.087 386.394,120.500 386.138 C 120.665 386.036,120.801 372.328,120.802 355.676 C 120.804 335.453,120.946 324.889,121.231 323.862 C 121.702 322.169,121.500 321.428,120.965 322.884 M156.310 354.723 C 156.370 371.804,156.550 385.910,156.710 386.070 C 156.869 386.230,156.910 372.344,156.800 355.213 C 156.690 338.082,156.510 323.976,156.400 323.866 C 156.290 323.756,156.249 337.642,156.310 354.723 M271.204 324.510 C 271.199 324.903,274.407 330.000,274.659 330.000 C 274.870 330.000,274.839 329.945,272.724 326.600 C 271.890 325.280,271.206 324.339,271.204 324.510 M264.891 326.900 C 265.212 327.395,266.239 329.015,267.173 330.500 C 268.107 331.985,268.966 333.200,269.082 333.200 C 269.197 333.200,269.030 332.795,268.709 332.300 C 268.388 331.805,267.361 330.185,266.427 328.700 C 265.493 327.215,264.634 326.000,264.518 326.000 C 264.403 326.000,264.570 326.405,264.891 326.900 M75.500 327.465 C 75.893 327.623,76.000 333.354,76.000 354.233 L 76.000 380.800 70.280 380.800 C 66.364 380.800,64.409 380.951,64.080 381.280 C 63.181 382.179,63.534 387.600,64.492 387.600 C 64.737 387.600,64.712 387.376,64.429 387.035 C 64.147 386.695,64.008 385.459,64.080 383.935 L 64.200 381.400 70.200 381.200 L 76.200 381.000 76.303 354.100 C 76.400 328.657,76.368 327.202,75.703 327.232 C 75.284 327.250,75.202 327.345,75.500 327.465 M113.590 327.463 C 113.864 327.599,114.000 337.306,114.000 356.810 C 114.000 372.838,114.135 386.036,114.300 386.138 C 114.465 386.240,114.510 373.081,114.400 356.895 C 114.241 333.492,114.096 327.445,113.690 327.363 C 113.410 327.306,113.365 327.351,113.590 327.463 M162.705 356.780 C 162.647 373.049,162.733 386.227,162.895 386.065 C 163.281 385.679,163.490 327.200,163.105 327.200 C 162.943 327.200,162.763 340.511,162.705 356.780 M248.697 327.492 C 249.085 327.766,249.218 334.633,249.297 358.622 L 249.400 389.400 257.373 389.400 L 265.345 389.400 266.710 387.500 C 267.461 386.455,267.977 385.600,267.857 385.600 C 267.737 385.600,267.081 386.410,266.400 387.400 L 265.162 389.200 257.383 389.200 L 249.605 389.200 249.502 358.333 C 249.413 331.294,249.326 327.446,248.800 327.303 C 248.358 327.182,248.331 327.232,248.697 327.492 M314.667 327.467 C 314.520 327.613,314.400 334.245,314.400 342.204 L 314.400 356.675 318.207 361.737 C 320.302 364.522,322.105 366.800,322.215 366.800 C 322.325 366.800,320.697 364.516,318.598 361.725 L 314.781 356.650 314.891 341.925 C 314.951 333.826,314.985 327.200,314.967 327.200 C 314.948 327.200,314.813 327.320,314.667 327.467 M276.256 332.900 C 278.004 335.784,279.593 338.129,279.596 337.828 C 279.600 337.407,276.402 332.400,276.129 332.400 C 276.032 332.400,276.089 332.625,276.256 332.900 M271.015 336.700 C 271.404 337.305,271.965 338.155,272.261 338.589 C 272.687 339.213,272.800 342.257,272.800 353.117 L 272.800 366.856 271.581 368.628 C 270.910 369.603,270.452 370.400,270.562 370.400 C 270.672 370.400,271.310 369.603,271.981 368.628 L 273.200 366.856 273.200 353.163 L 273.200 339.470 271.958 337.535 C 271.275 336.471,270.625 335.600,270.512 335.600 C 270.400 335.600,270.626 336.095,271.015 336.700 M193.752 358.886 C 193.984 359.635,205.889 375.600,206.215 375.600 C 206.325 375.600,203.744 372.045,200.480 367.700 C 197.215 363.355,194.318 359.440,194.042 359.000 C 193.681 358.425,193.599 358.393,193.752 358.886 M212.624 373.633 C 217.483 380.100,220.375 384.289,220.235 384.653 C 220.108 384.984,220.183 385.134,220.405 384.997 C 220.622 384.863,220.800 384.580,220.800 384.369 C 220.800 383.942,205.307 363.200,204.988 363.200 C 204.878 363.200,208.315 367.895,212.624 373.633 M278.694 369.703 L 277.988 371.000 278.794 370.056 C 279.480 369.252,279.846 368.394,279.500 368.403 C 279.445 368.404,279.082 368.989,278.694 369.703 M268.400 373.200 C 267.504 374.520,266.860 375.600,266.970 375.600 C 267.080 375.600,267.904 374.520,268.800 373.200 C 269.696 371.880,270.340 370.800,270.230 370.800 C 270.120 370.800,269.296 371.880,268.400 373.200 M276.800 372.400 C 276.330 373.060,276.036 373.600,276.146 373.600 C 276.256 373.600,276.730 373.060,277.200 372.400 C 277.670 371.740,277.964 371.200,277.854 371.200 C 277.744 371.200,277.270 371.740,276.800 372.400 M274.032 376.400 C 273.106 377.720,272.434 378.800,272.537 378.800 C 272.707 378.800,275.008 375.716,275.744 374.500 C 276.603 373.083,275.503 374.303,274.032 376.400 M207.463 377.415 C 215.064 388.213,215.723 388.773,218.200 386.556 L 219.800 385.124 218.142 386.362 C 215.815 388.100,215.793 388.088,211.900 382.881 C 208.123 377.828,205.341 374.402,207.463 377.415 M264.800 378.400 C 263.904 379.720,263.260 380.800,263.370 380.800 C 263.480 380.800,264.304 379.720,265.200 378.400 C 266.096 377.080,266.740 376.000,266.630 376.000 C 266.520 376.000,265.696 377.080,264.800 378.400 M270.432 381.600 C 269.506 382.920,268.834 384.000,268.937 384.000 C 269.107 384.000,271.408 380.916,272.144 379.700 C 273.003 378.283,271.903 379.503,270.432 381.600 M334.669 383.942 C 334.810 384.483,334.324 385.082,332.878 386.143 C 330.591 387.822,330.540 387.833,329.431 386.900 C 328.601 386.201,328.601 386.201,329.362 387.100 C 330.378 388.300,330.582 388.261,333.064 386.387 C 335.089 384.858,335.648 383.924,334.837 383.423 C 334.638 383.300,334.562 383.533,334.669 383.942 " stroke="none" fill="#a09e9d" fill-rule="evenodd"></path><path id="path3" d="M156.400 63.557 C 156.400 63.960,157.368 64.400,158.256 64.400 C 158.581 64.400,158.736 64.220,158.600 64.000 C 158.436 63.734,172.004 63.600,199.000 63.600 C 225.996 63.600,239.564 63.734,239.400 64.000 C 239.020 64.615,240.549 64.474,241.424 63.813 C 242.108 63.295,237.108 63.224,199.300 63.213 C 174.384 63.205,156.400 63.350,156.400 63.557 M162.000 65.200 C 162.550 65.376,163.360 65.520,163.800 65.520 C 164.433 65.520,164.392 65.454,163.600 65.200 C 163.050 65.024,162.240 64.880,161.800 64.880 C 161.167 64.880,161.208 64.946,162.000 65.200 M167.600 66.400 C 168.150 66.576,168.960 66.720,169.400 66.720 C 170.033 66.720,169.992 66.654,169.200 66.400 C 168.650 66.224,167.840 66.080,167.400 66.080 C 166.767 66.080,166.808 66.146,167.600 66.400 M245.800 66.662 C 246.240 66.777,246.937 67.261,247.349 67.736 L 248.098 68.600 247.503 67.600 C 247.167 67.035,246.493 66.568,245.954 66.526 C 245.205 66.468,245.172 66.497,245.800 66.662 M242.400 67.200 C 241.596 67.457,241.557 67.523,242.200 67.532 C 242.640 67.538,243.360 67.389,243.800 67.200 C 244.819 66.762,243.768 66.762,242.400 67.200 M173.200 67.600 C 173.750 67.776,174.560 67.920,175.000 67.920 C 175.633 67.920,175.592 67.854,174.800 67.600 C 174.250 67.424,173.440 67.280,173.000 67.280 C 172.367 67.280,172.408 67.346,173.200 67.600 M236.800 68.400 C 235.996 68.657,235.957 68.723,236.600 68.732 C 237.040 68.738,237.760 68.589,238.200 68.400 C 239.219 67.962,238.168 67.962,236.800 68.400 M178.800 68.800 C 179.350 68.976,180.160 69.120,180.600 69.120 C 181.233 69.120,181.192 69.054,180.400 68.800 C 179.850 68.624,179.040 68.480,178.600 68.480 C 177.967 68.480,178.008 68.546,178.800 68.800 M149.000 70.400 C 148.659 71.060,148.469 71.600,148.579 71.600 C 148.689 71.600,149.059 71.060,149.400 70.400 C 149.741 69.740,149.931 69.200,149.821 69.200 C 149.711 69.200,149.341 69.740,149.000 70.400 M231.200 69.600 C 230.396 69.857,230.357 69.923,231.000 69.932 C 231.440 69.938,232.160 69.789,232.600 69.600 C 233.619 69.162,232.568 69.162,231.200 69.600 M184.400 70.000 C 184.950 70.176,185.760 70.320,186.200 70.320 C 186.833 70.320,186.792 70.254,186.000 70.000 C 185.450 69.824,184.640 69.680,184.200 69.680 C 183.567 69.680,183.608 69.746,184.400 70.000 M249.200 71.200 C 249.649 72.080,250.106 72.800,250.216 72.800 C 250.326 72.800,250.049 72.080,249.600 71.200 C 249.151 70.320,248.694 69.600,248.584 69.600 C 248.474 69.600,248.751 70.320,249.200 71.200 M225.600 70.800 C 224.796 71.057,224.757 71.123,225.400 71.132 C 225.840 71.138,226.560 70.989,227.000 70.800 C 228.019 70.362,226.968 70.362,225.600 70.800 M190.000 71.200 C 190.550 71.376,191.360 71.520,191.800 71.520 C 192.433 71.520,192.392 71.454,191.600 71.200 C 191.050 71.024,190.240 70.880,189.800 70.880 C 189.167 70.880,189.208 70.946,190.000 71.200 M220.000 72.000 C 219.196 72.257,219.157 72.323,219.800 72.332 C 220.240 72.338,220.960 72.189,221.400 72.000 C 222.419 71.562,221.368 71.562,220.000 72.000 M196.915 72.296 C 198.188 72.376,200.168 72.375,201.315 72.294 C 202.462 72.214,201.420 72.149,199.000 72.150 C 196.580 72.151,195.642 72.216,196.915 72.296 M214.400 73.200 C 213.608 73.454,213.567 73.520,214.200 73.520 C 214.640 73.520,215.450 73.376,216.000 73.200 C 216.792 72.946,216.833 72.880,216.200 72.880 C 215.760 72.880,214.950 73.024,214.400 73.200 M146.600 74.800 C 146.259 75.460,146.069 76.000,146.179 76.000 C 146.289 76.000,146.659 75.460,147.000 74.800 C 147.341 74.140,147.531 73.600,147.421 73.600 C 147.311 73.600,146.941 74.140,146.600 74.800 M208.800 74.400 C 208.008 74.654,207.967 74.720,208.600 74.720 C 209.040 74.720,209.850 74.576,210.400 74.400 C 211.192 74.146,211.233 74.080,210.600 74.080 C 210.160 74.080,209.350 74.224,208.800 74.400 M251.600 75.600 C 252.049 76.480,252.506 77.200,252.616 77.200 C 252.726 77.200,252.449 76.480,252.000 75.600 C 251.551 74.720,251.094 74.000,250.984 74.000 C 250.874 74.000,251.151 74.720,251.600 75.600 M204.800 75.616 C 204.800 76.144,206.349 79.200,206.616 79.200 C 206.726 79.200,206.446 78.474,205.993 77.586 C 205.540 76.699,205.277 75.799,205.408 75.586 C 205.540 75.374,205.457 75.200,205.224 75.200 C 204.991 75.200,204.800 75.387,204.800 75.616 M144.556 78.571 C 144.435 78.885,144.404 79.560,144.486 80.071 C 144.595 80.754,144.688 80.604,144.837 79.500 C 145.047 77.947,144.936 77.581,144.556 78.571 M253.371 79.538 C 253.356 80.122,253.208 80.960,253.044 81.400 C 252.859 81.894,252.979 81.818,253.358 81.200 C 254.023 80.117,254.179 78.958,253.700 78.662 C 253.535 78.560,253.387 78.954,253.371 79.538 M132.875 83.500 C 141.632 83.611,141.960 83.644,142.212 84.438 C 142.356 84.890,142.561 85.172,142.669 85.064 C 142.777 84.957,142.664 84.493,142.418 84.034 C 141.984 83.222,141.734 83.202,132.886 83.292 L 123.800 83.384 132.875 83.500 M265.000 83.496 L 274.000 83.615 274.000 118.204 L 274.000 152.792 254.900 152.902 L 235.800 153.012 255.000 153.006 L 274.200 153.000 274.200 118.200 L 274.200 83.400 265.100 83.388 L 256.000 83.377 265.000 83.496 M142.828 85.800 C 142.828 86.020,143.086 86.650,143.400 87.200 C 143.714 87.750,143.972 88.020,143.972 87.800 C 143.972 87.580,143.714 86.950,143.400 86.400 C 143.086 85.850,142.828 85.580,142.828 85.800 M185.000 90.800 C 184.443 91.900,184.077 92.800,184.187 92.800 C 184.297 92.800,184.843 91.900,185.400 90.800 C 185.957 89.700,186.323 88.800,186.213 88.800 C 186.103 88.800,185.557 89.700,185.000 90.800 M182.600 95.200 C 182.043 96.300,181.677 97.200,181.787 97.200 C 181.897 97.200,182.443 96.300,183.000 95.200 C 183.557 94.100,183.923 93.200,183.813 93.200 C 183.703 93.200,183.157 94.100,182.600 95.200 M151.267 97.220 C 151.501 97.892,151.767 98.367,151.857 98.276 C 152.056 98.078,151.301 96.000,151.031 96.000 C 150.927 96.000,151.033 96.549,151.267 97.220 M180.000 100.000 C 179.551 100.880,179.274 101.600,179.384 101.600 C 179.494 101.600,179.951 100.880,180.400 100.000 C 180.849 99.120,181.126 98.400,181.016 98.400 C 180.906 98.400,180.449 99.120,180.000 100.000 M148.828 100.600 C 148.828 100.820,149.086 101.450,149.400 102.000 C 149.714 102.550,149.972 102.820,149.972 102.600 C 149.972 102.380,149.714 101.750,149.400 101.200 C 149.086 100.650,148.828 100.380,148.828 100.600 M177.800 104.000 C 177.243 105.100,176.877 106.000,176.987 106.000 C 177.097 106.000,177.643 105.100,178.200 104.000 C 178.757 102.900,179.123 102.000,179.013 102.000 C 178.903 102.000,178.357 102.900,177.800 104.000 M247.267 104.780 C 247.033 105.451,246.927 106.000,247.031 106.000 C 247.301 106.000,248.056 103.922,247.857 103.724 C 247.767 103.633,247.501 104.108,247.267 104.780 M220.600 105.200 C 220.941 105.860,221.311 106.400,221.421 106.400 C 221.531 106.400,221.341 105.860,221.000 105.200 C 220.659 104.540,220.289 104.000,220.179 104.000 C 220.069 104.000,220.259 104.540,220.600 105.200 M154.867 106.020 C 155.101 106.692,155.367 107.167,155.457 107.076 C 155.656 106.878,154.901 104.800,154.631 104.800 C 154.527 104.800,154.633 105.349,154.867 106.020 M175.400 108.400 C 174.843 109.500,174.477 110.400,174.587 110.400 C 174.697 110.400,175.243 109.500,175.800 108.400 C 176.357 107.300,176.723 106.400,176.613 106.400 C 176.503 106.400,175.957 107.300,175.400 108.400 M223.000 109.600 C 223.557 110.700,224.103 111.600,224.213 111.600 C 224.323 111.600,223.957 110.700,223.400 109.600 C 222.843 108.500,222.297 107.600,222.187 107.600 C 222.077 107.600,222.443 108.500,223.000 109.600 M241.665 109.017 C 240.995 110.488,241.123 110.802,241.847 109.465 C 242.186 108.840,242.388 108.254,242.296 108.163 C 242.205 108.071,241.921 108.456,241.665 109.017 M172.800 113.200 C 172.351 114.080,172.074 114.800,172.184 114.800 C 172.294 114.800,172.751 114.080,173.200 113.200 C 173.649 112.320,173.926 111.600,173.816 111.600 C 173.706 111.600,173.249 112.320,172.800 113.200 M225.400 114.000 C 225.957 115.100,226.503 116.000,226.613 116.000 C 226.723 116.000,226.357 115.100,225.800 114.000 C 225.243 112.900,224.697 112.000,224.587 112.000 C 224.477 112.000,224.843 112.900,225.400 114.000 M243.667 113.580 C 243.433 114.251,243.327 114.800,243.431 114.800 C 243.701 114.800,244.456 112.722,244.257 112.524 C 244.167 112.433,243.901 112.908,243.667 113.580 M170.200 118.000 C 169.643 119.100,169.277 120.000,169.387 120.000 C 169.497 120.000,170.043 119.100,170.600 118.000 C 171.157 116.900,171.523 116.000,171.413 116.000 C 171.303 116.000,170.757 116.900,170.200 118.000 M227.800 118.400 C 228.357 119.500,228.903 120.400,229.013 120.400 C 229.123 120.400,228.757 119.500,228.200 118.400 C 227.643 117.300,227.097 116.400,226.987 116.400 C 226.877 116.400,227.243 117.300,227.800 118.400 M167.600 122.800 C 167.151 123.680,166.874 124.400,166.984 124.400 C 167.094 124.400,167.551 123.680,168.000 122.800 C 168.449 121.920,168.726 121.200,168.616 121.200 C 168.506 121.200,168.049 121.920,167.600 122.800 M165.419 126.764 C 165.088 127.404,164.597 128.001,164.328 128.091 C 163.962 128.213,163.956 128.326,164.304 128.541 C 164.596 128.721,165.077 128.226,165.593 127.214 C 166.046 126.326,166.327 125.600,166.218 125.600 C 166.110 125.600,165.750 126.124,165.419 126.764 M160.428 129.000 C 160.428 129.220,160.686 129.850,161.000 130.400 C 161.314 130.950,161.572 131.220,161.572 131.000 C 161.572 130.780,161.314 130.150,161.000 129.600 C 160.686 129.050,160.428 128.780,160.428 129.000 M162.093 142.708 L 162.000 152.815 143.000 152.708 C 132.550 152.648,124.000 152.735,124.000 152.900 C 124.000 153.467,162.002 153.261,162.220 152.692 C 162.327 152.413,162.363 147.778,162.300 142.392 L 162.185 132.600 162.093 142.708 M270.600 183.200 C 270.600 196.180,270.735 206.800,270.900 206.800 C 271.065 206.800,271.200 196.180,271.200 183.200 C 271.200 170.220,271.065 159.600,270.900 159.600 C 270.735 159.600,270.600 170.220,270.600 183.200 M126.903 183.000 C 126.820 204.130,126.979 208.596,127.740 206.613 C 127.885 206.233,127.826 206.060,127.599 206.201 C 127.345 206.358,127.169 198.230,127.100 183.122 L 126.993 159.800 126.903 183.000 M158.400 166.600 C 158.060 167.009,158.044 167.200,158.347 167.200 C 158.667 167.200,158.823 172.921,158.900 187.500 L 159.007 207.800 159.104 186.900 C 159.157 175.405,159.132 166.000,159.049 166.000 C 158.966 166.000,158.674 166.270,158.400 166.600 M238.896 187.100 L 238.993 207.800 239.101 187.200 L 239.209 166.600 240.237 167.800 L 241.266 169.000 240.406 167.700 C 238.833 165.323,238.797 165.781,238.896 187.100 M241.877 170.431 C 242.275 171.108,242.856 171.873,243.168 172.131 C 243.480 172.389,243.232 171.835,242.615 170.900 C 241.320 168.937,240.809 168.612,241.877 170.431 M151.293 170.700 C 150.257 172.196,149.921 172.800,150.123 172.800 C 150.217 172.800,150.770 172.080,151.353 171.200 C 152.536 169.412,152.484 168.979,151.293 170.700 M148.893 174.300 C 147.857 175.796,147.521 176.400,147.723 176.400 C 147.817 176.400,148.370 175.680,148.953 174.800 C 150.136 173.012,150.084 172.579,148.893 174.300 M146.493 177.900 C 145.457 179.396,145.121 180.000,145.323 180.000 C 145.417 180.000,145.970 179.280,146.553 178.400 C 147.736 176.612,147.684 176.179,146.493 177.900 M253.385 181.100 C 254.002 182.035,254.583 182.800,254.676 182.800 C 254.964 182.800,253.433 180.366,252.832 179.869 C 252.520 179.611,252.768 180.165,253.385 181.100 M144.093 181.500 C 143.057 182.996,142.721 183.600,142.923 183.600 C 143.017 183.600,143.570 182.880,144.153 182.000 C 145.336 180.212,145.284 179.779,144.093 181.500 M255.785 184.700 C 256.402 185.635,256.983 186.400,257.076 186.400 C 257.364 186.400,255.833 183.966,255.232 183.469 C 254.920 183.211,255.168 183.765,255.785 184.700 M136.800 192.400 C 133.715 197.020,131.281 200.800,131.391 200.800 C 131.501 200.800,134.115 197.020,137.200 192.400 C 140.285 187.780,142.719 184.000,142.609 184.000 C 142.499 184.000,139.885 187.780,136.800 192.400 M258.185 188.300 C 258.802 189.235,259.383 190.000,259.476 190.000 C 259.764 190.000,258.233 187.566,257.632 187.069 C 257.320 186.811,257.568 187.365,258.185 188.300 M141.693 191.500 C 140.657 192.996,140.321 193.600,140.523 193.600 C 140.617 193.600,141.170 192.880,141.753 192.000 C 142.936 190.212,142.884 189.779,141.693 191.500 M263.600 196.400 C 265.807 199.700,267.703 202.400,267.813 202.400 C 267.923 202.400,266.207 199.700,264.000 196.400 C 261.793 193.100,259.897 190.400,259.787 190.400 C 259.677 190.400,261.393 193.100,263.600 196.400 M138.400 196.400 C 137.504 197.720,136.860 198.800,136.970 198.800 C 137.080 198.800,137.904 197.720,138.800 196.400 C 139.696 195.080,140.340 194.000,140.230 194.000 C 140.120 194.000,139.296 195.080,138.400 196.400 M262.381 200.971 C 264.393 203.978,266.140 206.700,266.263 207.019 C 266.454 207.519,264.591 207.613,252.943 207.694 L 239.400 207.789 252.775 207.900 C 261.124 207.969,266.296 207.864,266.541 207.619 C 266.903 207.257,260.052 196.327,259.091 195.732 C 258.888 195.607,260.369 197.965,262.381 200.971 M135.385 200.900 C 134.768 201.835,134.520 202.389,134.832 202.131 C 135.433 201.634,136.964 199.200,136.676 199.200 C 136.583 199.200,136.002 199.965,135.385 200.900 M129.785 202.900 C 129.168 203.835,128.920 204.389,129.232 204.131 C 129.833 203.634,131.364 201.200,131.076 201.200 C 130.983 201.200,130.402 201.965,129.785 202.900 M132.985 204.500 C 132.368 205.435,132.120 205.989,132.432 205.731 C 133.033 205.234,134.564 202.800,134.276 202.800 C 134.183 202.800,133.602 203.565,132.985 204.500 M131.378 206.835 C 130.732 207.881,132.367 208.007,145.225 207.900 L 158.600 207.789 145.057 207.694 C 133.209 207.612,131.543 207.525,131.745 207.000 C 132.011 206.305,131.773 206.197,131.378 206.835 M249.599 291.000 L 249.400 322.200 240.200 322.411 L 231.000 322.623 240.051 322.711 C 247.277 322.782,249.193 322.690,249.554 322.256 C 249.882 321.860,249.977 313.295,249.901 290.756 L 249.797 259.800 249.599 291.000 M266.208 261.958 C 267.015 263.081,267.757 264.000,267.857 264.000 C 268.132 264.000,265.652 260.480,265.166 260.179 C 264.932 260.035,265.401 260.835,266.208 261.958 M215.149 261.900 C 214.651 262.534,214.666 262.549,215.300 262.051 C 215.893 261.586,216.107 261.586,216.700 262.051 C 217.334 262.549,217.349 262.534,216.851 261.900 C 216.549 261.515,216.166 261.200,216.000 261.200 C 215.834 261.200,215.451 261.515,215.149 261.900 M329.570 262.300 L 328.600 263.400 329.630 262.496 C 330.196 261.999,330.810 261.729,330.994 261.896 C 331.178 262.063,331.199 261.975,331.041 261.700 C 330.662 261.042,330.688 261.031,329.570 262.300 M61.383 262.500 C 61.277 262.775,61.240 270.560,61.300 279.800 L 61.409 296.600 61.505 279.492 L 61.600 262.384 70.300 262.492 L 79.000 262.600 79.000 265.000 L 79.000 267.400 73.000 267.600 L 67.000 267.800 66.992 281.200 L 66.984 294.600 67.097 281.300 L 67.211 268.000 72.925 268.000 C 79.434 268.000,79.600 267.929,79.600 265.153 C 79.600 261.797,80.195 262.000,70.345 262.000 C 63.697 262.000,61.528 262.121,61.383 262.500 M132.267 262.267 C 132.120 262.413,132.003 262.728,132.006 262.967 C 132.010 263.209,132.159 263.169,132.344 262.878 C 132.596 262.479,133.965 262.384,138.100 262.478 C 141.084 262.545,143.442 262.465,143.339 262.300 C 143.109 261.929,132.636 261.898,132.267 262.267 M144.061 264.800 C 144.061 265.130,144.303 266.030,144.600 266.800 C 144.897 267.570,145.139 267.930,145.139 267.600 C 145.139 267.270,144.897 266.370,144.600 265.600 C 144.303 264.830,144.061 264.470,144.061 264.800 M268.677 265.631 C 269.075 266.308,269.656 267.073,269.968 267.331 C 270.280 267.589,270.032 267.035,269.415 266.100 C 268.120 264.137,267.609 263.812,268.677 265.631 M255.467 265.867 C 254.809 266.524,255.172 383.104,255.833 383.357 C 257.323 383.929,261.891 383.614,262.451 382.900 C 262.942 382.274,262.930 382.255,262.337 382.718 C 261.895 383.064,260.696 383.197,258.737 383.118 L 255.800 383.000 255.699 324.516 L 255.597 266.032 258.899 265.898 L 262.200 265.763 258.967 265.681 C 257.188 265.637,255.613 265.720,255.467 265.867 M262.400 266.161 C 262.400 266.543,264.776 270.000,265.038 270.000 C 265.148 270.000,264.661 269.145,263.954 268.100 C 262.388 265.783,262.400 265.797,262.400 266.161 M326.800 275.200 C 323.492 279.600,320.875 283.200,320.985 283.200 C 321.095 283.200,323.892 279.600,327.200 275.200 C 330.508 270.800,333.125 267.200,333.015 267.200 C 332.905 267.200,330.108 270.800,326.800 275.200 M136.414 268.374 C 136.186 268.799,136.014 269.384,136.032 269.674 C 136.049 269.963,136.240 269.716,136.457 269.124 C 136.721 268.401,137.203 267.994,137.925 267.884 L 139.000 267.720 137.914 267.660 C 137.207 267.621,136.684 267.870,136.414 268.374 M130.229 269.029 C 130.081 269.615,130.038 270.172,130.132 270.266 C 130.227 270.360,130.424 269.958,130.571 269.371 C 130.719 268.785,130.762 268.228,130.668 268.134 C 130.573 268.040,130.376 268.442,130.229 269.029 M272.400 271.000 C 273.081 271.990,273.728 272.800,273.838 272.800 C 273.948 272.800,273.481 271.990,272.800 271.000 C 272.119 270.010,271.472 269.200,271.362 269.200 C 271.252 269.200,271.719 270.010,272.400 271.000 M135.429 271.429 C 135.281 272.015,135.238 272.572,135.332 272.666 C 135.427 272.760,135.624 272.358,135.771 271.771 C 135.919 271.185,135.962 270.628,135.868 270.534 C 135.773 270.440,135.576 270.842,135.429 271.429 M207.944 271.500 C 206.793 272.889,206.306 273.600,206.504 273.600 C 206.614 273.600,207.186 272.970,207.773 272.200 C 208.863 270.771,208.995 270.232,207.944 271.500 M317.600 278.000 C 314.950 281.520,312.871 284.400,312.981 284.400 C 313.091 284.400,315.350 281.520,318.000 278.000 C 320.650 274.480,322.729 271.600,322.619 271.600 C 322.509 271.600,320.250 274.480,317.600 278.000 M140.456 272.400 C 140.456 272.730,140.611 273.360,140.800 273.800 C 141.017 274.304,141.144 274.378,141.144 274.000 C 141.144 273.670,140.989 273.040,140.800 272.600 C 140.583 272.096,140.456 272.022,140.456 272.400 M204.800 275.600 C 204.103 276.480,203.623 277.200,203.733 277.200 C 203.843 277.200,204.503 276.480,205.200 275.600 C 205.897 274.720,206.377 274.000,206.267 274.000 C 206.157 274.000,205.497 274.720,204.800 275.600 M268.585 275.500 C 269.202 276.435,269.783 277.200,269.876 277.200 C 270.164 277.200,268.633 274.766,268.032 274.269 C 267.720 274.011,267.968 274.565,268.585 275.500 M133.829 277.029 C 133.681 277.615,133.638 278.172,133.732 278.266 C 133.827 278.360,134.024 277.958,134.171 277.371 C 134.319 276.785,134.362 276.228,134.268 276.134 C 134.173 276.040,133.976 276.442,133.829 277.029 M147.661 276.400 C 147.661 276.730,147.903 277.630,148.200 278.400 C 148.497 279.170,148.739 279.530,148.739 279.200 C 148.739 278.870,148.497 277.970,148.200 277.200 C 147.903 276.430,147.661 276.070,147.661 276.400 M277.581 278.572 L 278.800 280.344 278.800 295.800 L 278.800 311.256 277.668 312.928 C 276.227 315.056,275.912 315.600,276.120 315.600 C 276.212 315.600,276.942 314.613,277.743 313.406 L 279.200 311.212 279.200 295.778 L 279.200 280.344 277.981 278.572 C 277.310 277.597,276.672 276.800,276.562 276.800 C 276.452 276.800,276.910 277.597,277.581 278.572 M201.570 279.900 C 200.621 281.165,200.113 281.983,200.441 281.718 C 201.115 281.175,203.746 277.600,203.473 277.600 C 203.376 277.600,202.519 278.635,201.570 279.900 M133.029 279.829 C 132.881 280.415,132.838 280.972,132.932 281.066 C 133.027 281.160,133.224 280.758,133.371 280.171 C 133.519 279.585,133.562 279.028,133.468 278.934 C 133.373 278.840,133.176 279.242,133.029 279.829 M272.568 281.189 C 273.340 282.397,273.530 308.570,272.778 310.126 C 272.370 310.970,272.377 310.974,272.978 310.224 C 274.084 308.842,273.894 282.422,272.768 281.144 L 271.936 280.200 272.568 281.189 M203.751 286.500 C 202.059 288.755,200.500 290.825,200.288 291.100 C 200.076 291.375,199.992 291.600,200.102 291.600 C 200.212 291.600,201.857 289.530,203.757 287.000 C 205.658 284.470,207.126 282.400,207.021 282.400 C 206.915 282.400,205.444 284.245,203.751 286.500 M144.056 284.000 C 144.056 284.330,144.211 284.960,144.400 285.400 C 144.617 285.904,144.744 285.978,144.744 285.600 C 144.744 285.270,144.589 284.640,144.400 284.200 C 144.183 283.696,144.056 283.622,144.056 284.000 M131.429 285.429 C 131.281 286.015,131.238 286.572,131.332 286.666 C 131.427 286.760,131.624 286.358,131.771 285.771 C 131.919 285.185,131.962 284.628,131.868 284.534 C 131.773 284.440,131.576 284.842,131.429 285.429 M311.375 286.268 C 310.759 287.076,310.459 287.611,310.709 287.456 C 311.221 287.140,312.953 284.800,312.675 284.800 C 312.576 284.800,311.991 285.461,311.375 286.268 M130.629 288.229 C 130.481 288.815,130.438 289.372,130.532 289.466 C 130.627 289.560,130.824 289.158,130.971 288.571 C 131.119 287.985,131.162 287.428,131.068 287.334 C 130.973 287.240,130.776 287.642,130.629 288.229 M151.256 288.000 C 151.256 288.330,151.411 288.960,151.600 289.400 C 151.817 289.904,151.944 289.978,151.944 289.600 C 151.944 289.270,151.789 288.640,151.600 288.200 C 151.383 287.696,151.256 287.622,151.256 288.000 M308.584 290.100 C 308.479 290.375,308.440 305.990,308.497 324.800 L 308.600 359.000 308.800 324.300 C 308.910 305.215,308.949 289.600,308.887 289.600 C 308.826 289.600,308.689 289.825,308.584 290.100 M314.182 292.101 C 314.077 292.377,314.037 299.352,314.095 307.601 L 314.200 322.600 344.538 322.703 L 374.877 322.805 374.738 324.803 C 374.662 325.902,374.744 326.800,374.921 326.800 C 375.097 326.800,375.187 325.855,375.121 324.700 L 375.000 322.600 344.691 322.497 L 314.382 322.395 314.491 306.997 C 314.551 298.529,314.549 291.600,314.487 291.600 C 314.426 291.600,314.288 291.826,314.182 292.101 M199.694 324.476 C 199.642 342.448,199.735 357.236,199.900 357.338 C 200.172 357.506,200.169 334.435,199.893 303.600 C 199.835 297.110,199.745 306.504,199.694 324.476 M152.856 293.200 C 152.856 293.530,153.011 294.160,153.200 294.600 C 153.417 295.104,153.544 295.178,153.544 294.800 C 153.544 294.470,153.389 293.840,153.200 293.400 C 152.983 292.896,152.856 292.822,152.856 293.200 M128.229 296.629 C 128.081 297.215,128.038 297.772,128.132 297.866 C 128.227 297.960,128.424 297.558,128.571 296.971 C 128.719 296.385,128.762 295.828,128.668 295.734 C 128.573 295.640,128.376 296.042,128.229 296.629 M70.200 301.200 C 70.757 302.300,71.303 303.200,71.413 303.200 C 71.523 303.200,71.157 302.300,70.600 301.200 C 70.043 300.100,69.497 299.200,69.387 299.200 C 69.277 299.200,69.643 300.100,70.200 301.200 M154.856 299.600 C 154.856 299.930,155.011 300.560,155.200 301.000 C 155.417 301.504,155.544 301.578,155.544 301.200 C 155.544 300.870,155.389 300.240,155.200 299.800 C 154.983 299.296,154.856 299.222,154.856 299.600 M64.200 302.000 C 64.757 303.100,65.303 304.000,65.413 304.000 C 65.523 304.000,65.157 303.100,64.600 302.000 C 64.043 300.900,63.497 300.000,63.387 300.000 C 63.277 300.000,63.643 300.900,64.200 302.000 M125.829 305.029 C 125.681 305.615,125.638 306.172,125.732 306.266 C 125.827 306.360,126.024 305.958,126.171 305.371 C 126.319 304.785,126.362 304.228,126.268 304.134 C 126.173 304.040,125.976 304.442,125.829 305.029 M75.600 311.600 C 76.485 313.360,77.299 314.800,77.409 314.800 C 77.519 314.800,76.885 313.360,76.000 311.600 C 75.115 309.840,74.301 308.400,74.191 308.400 C 74.081 308.400,74.715 309.840,75.600 311.600 M118.629 309.429 C 118.481 310.015,118.438 310.572,118.532 310.666 C 118.627 310.760,118.824 310.358,118.971 309.771 C 119.119 309.185,119.162 308.628,119.068 308.534 C 118.973 308.440,118.776 308.842,118.629 309.429 M69.800 312.800 C 70.357 313.900,70.903 314.800,71.013 314.800 C 71.123 314.800,70.757 313.900,70.200 312.800 C 69.643 311.700,69.097 310.800,68.987 310.800 C 68.877 310.800,69.243 311.700,69.800 312.800 M158.456 311.200 C 158.456 311.530,158.611 312.160,158.800 312.600 C 159.017 313.104,159.144 313.178,159.144 312.800 C 159.144 312.470,158.989 311.840,158.800 311.400 C 158.583 310.896,158.456 310.822,158.456 311.200 M123.429 313.429 C 123.281 314.015,123.238 314.572,123.332 314.666 C 123.427 314.760,123.624 314.358,123.771 313.771 C 123.919 313.185,123.962 312.628,123.868 312.534 C 123.773 312.440,123.576 312.842,123.429 313.429 M269.353 315.300 C 267.976 317.636,267.886 317.835,268.587 317.000 C 269.400 316.032,270.100 314.800,269.838 314.800 C 269.733 314.800,269.515 315.025,269.353 315.300 M275.353 316.500 C 273.976 318.836,273.886 319.035,274.587 318.200 C 275.400 317.232,276.100 316.000,275.838 316.000 C 275.733 316.000,275.515 316.225,275.353 316.500 M116.229 317.829 C 116.081 318.415,116.038 318.972,116.132 319.066 C 116.227 319.160,116.424 318.758,116.571 318.171 C 116.719 317.585,116.762 317.028,116.668 316.934 C 116.573 316.840,116.376 317.242,116.229 317.829 M80.794 321.589 L 82.000 323.977 82.000 355.381 L 82.000 386.785 73.100 386.904 L 64.200 387.024 73.200 387.012 L 82.200 387.000 82.302 355.493 L 82.405 323.987 81.197 321.593 C 80.532 320.277,79.898 319.200,79.788 319.200 C 79.678 319.200,80.131 320.275,80.794 321.589 M73.978 320.674 C 74.210 321.154,74.400 321.738,74.400 321.971 C 74.400 322.265,65.336 322.426,44.900 322.497 L 15.400 322.600 15.279 324.700 C 15.213 325.855,15.303 326.800,15.479 326.800 C 15.656 326.800,15.738 325.902,15.662 324.803 L 15.523 322.805 45.056 322.703 C 76.950 322.592,75.852 322.671,74.189 320.592 C 73.570 319.818,73.566 319.820,73.978 320.674 M265.753 320.900 C 264.376 323.236,264.286 323.435,264.987 322.600 C 265.800 321.632,266.500 320.400,266.238 320.400 C 266.133 320.400,265.915 320.625,265.753 320.900 M121.029 321.829 C 120.881 322.415,120.838 322.972,120.932 323.066 C 121.027 323.160,121.224 322.758,121.371 322.171 C 121.519 321.585,121.562 321.028,121.468 320.934 C 121.373 320.840,121.176 321.242,121.029 321.829 M115.065 321.775 C 114.866 322.294,113.402 322.403,105.315 322.500 L 95.800 322.615 105.251 322.708 C 114.512 322.798,116.653 322.520,115.506 321.373 C 115.392 321.259,115.193 321.440,115.065 321.775 M161.612 321.451 C 161.579 322.674,162.754 322.814,172.050 322.700 L 181.400 322.585 171.920 322.492 C 163.372 322.409,162.400 322.331,162.032 321.700 C 161.808 321.315,161.619 321.203,161.612 321.451 M230.446 324.476 C 230.421 325.508,230.542 326.441,230.716 326.548 C 230.890 326.656,230.970 326.082,230.893 325.272 C 230.659 322.798,230.495 322.507,230.446 324.476 M119.905 355.400 C 119.847 372.230,119.935 386.000,120.100 386.000 C 120.265 386.000,120.400 372.230,120.400 355.400 C 120.400 338.570,120.312 324.800,120.205 324.800 C 120.098 324.800,119.963 338.570,119.905 355.400 M156.893 355.900 C 156.842 372.455,156.935 386.000,157.100 386.000 C 157.372 386.000,157.369 364.754,157.093 336.600 C 157.034 330.660,156.945 339.345,156.893 355.900 M76.305 354.009 L 76.411 381.179 70.505 381.306 L 64.600 381.434 70.600 381.417 L 76.600 381.400 76.703 354.423 C 76.759 339.585,76.669 327.309,76.503 327.143 C 76.336 326.976,76.247 339.066,76.305 354.009 M114.305 356.105 C 114.363 372.201,114.543 385.503,114.705 385.665 C 114.867 385.827,114.953 372.791,114.895 356.695 C 114.837 340.599,114.657 327.297,114.495 327.135 C 114.333 326.973,114.247 340.009,114.305 356.105 M249.600 357.938 L 249.800 389.000 257.200 389.013 L 264.600 389.026 257.300 388.904 L 250.000 388.782 250.000 358.015 C 250.000 341.093,249.865 327.164,249.700 327.062 C 249.535 326.960,249.490 340.854,249.600 357.938 M314.267 327.067 C 314.120 327.213,314.000 333.944,314.000 342.023 L 314.000 356.712 315.799 359.156 C 316.789 360.500,317.688 361.600,317.798 361.600 C 317.908 361.600,317.185 360.494,316.190 359.143 L 314.381 356.687 314.491 341.743 C 314.551 333.524,314.585 326.800,314.567 326.800 C 314.548 326.800,314.413 326.920,314.267 327.067 M162.305 356.800 C 162.247 372.860,162.335 386.000,162.500 386.000 C 162.665 386.000,162.800 372.860,162.800 356.800 C 162.800 340.740,162.712 327.600,162.605 327.600 C 162.498 327.600,162.363 340.740,162.305 356.800 M275.409 332.226 C 275.781 332.901,276.441 333.891,276.876 334.426 L 277.667 335.400 276.991 334.174 C 276.619 333.499,275.959 332.509,275.524 331.974 L 274.733 331.000 275.409 332.226 M270.749 335.400 C 270.965 335.840,271.434 336.560,271.793 337.000 L 272.444 337.800 272.051 337.000 C 271.835 336.560,271.366 335.840,271.007 335.400 L 270.356 334.600 270.749 335.400 M278.800 353.480 C 278.690 362.324,278.737 369.423,278.905 369.256 C 279.072 369.088,279.162 361.852,279.104 353.175 L 279.000 337.400 278.800 353.480 M272.788 338.692 C 273.079 339.293,273.184 344.149,273.110 353.555 C 273.050 361.238,273.135 367.441,273.300 367.338 C 273.956 366.932,273.648 339.413,272.978 338.576 C 272.380 337.830,272.372 337.834,272.788 338.692 M208.800 369.200 C 211.450 372.720,213.709 375.600,213.819 375.600 C 213.929 375.600,211.850 372.720,209.200 369.200 C 206.550 365.680,204.291 362.800,204.181 362.800 C 204.071 362.800,206.150 365.680,208.800 369.200 M198.175 364.532 C 198.791 365.339,199.376 366.000,199.475 366.000 C 199.753 366.000,198.021 363.660,197.509 363.344 C 197.259 363.189,197.559 363.724,198.175 364.532 M201.775 369.332 C 202.391 370.139,202.976 370.800,203.075 370.800 C 203.353 370.800,201.621 368.460,201.109 368.144 C 200.859 367.989,201.159 368.524,201.775 369.332 M320.800 375.200 C 323.450 378.720,325.709 381.600,325.819 381.600 C 325.929 381.600,323.850 378.720,321.200 375.200 C 318.550 371.680,316.291 368.800,316.181 368.800 C 316.071 368.800,318.150 371.680,320.800 375.200 M277.200 371.200 C 276.730 371.860,276.436 372.400,276.546 372.400 C 276.656 372.400,277.130 371.860,277.600 371.200 C 278.070 370.540,278.364 370.000,278.254 370.000 C 278.144 370.000,277.670 370.540,277.200 371.200 M324.975 371.332 C 325.591 372.139,326.176 372.800,326.275 372.800 C 326.553 372.800,324.821 370.460,324.309 370.144 C 324.059 369.989,324.359 370.524,324.975 371.332 M205.375 374.132 C 205.991 374.939,206.576 375.600,206.675 375.600 C 206.953 375.600,205.221 373.260,204.709 372.944 C 204.459 372.789,204.759 373.324,205.375 374.132 M274.400 375.200 C 273.504 376.520,272.860 377.600,272.970 377.600 C 273.080 377.600,273.904 376.520,274.800 375.200 C 275.696 373.880,276.340 372.800,276.230 372.800 C 276.120 372.800,275.296 373.880,274.400 375.200 M330.440 378.594 C 333.070 382.098,334.406 384.208,334.250 384.615 C 334.111 384.976,334.177 385.138,334.405 384.997 C 334.622 384.863,334.800 384.554,334.800 384.311 C 334.800 383.845,326.933 373.200,326.589 373.200 C 326.479 373.200,328.212 375.628,330.440 378.594 M208.000 377.600 C 208.470 378.260,208.944 378.800,209.054 378.800 C 209.164 378.800,208.870 378.260,208.400 377.600 C 207.930 376.940,207.456 376.400,207.346 376.400 C 207.236 376.400,207.530 376.940,208.000 377.600 M270.800 380.400 C 269.904 381.720,269.260 382.800,269.370 382.800 C 269.480 382.800,270.304 381.720,271.200 380.400 C 272.096 379.080,272.740 378.000,272.630 378.000 C 272.520 378.000,271.696 379.080,270.800 380.400 M263.600 380.800 C 263.130 381.460,262.836 382.000,262.946 382.000 C 263.056 382.000,263.530 381.460,264.000 380.800 C 264.470 380.140,264.764 379.600,264.654 379.600 C 264.544 379.600,264.070 380.140,263.600 380.800 M211.591 382.388 C 212.057 383.041,212.642 383.702,212.891 383.856 C 213.141 384.011,212.841 383.476,212.225 382.668 C 210.888 380.915,210.384 380.692,211.591 382.388 M267.200 385.600 C 266.304 386.920,265.660 388.000,265.770 388.000 C 265.880 388.000,266.704 386.920,267.600 385.600 C 268.496 384.280,269.140 383.200,269.030 383.200 C 268.920 383.200,268.096 384.280,267.200 385.600 M219.640 384.552 C 219.388 384.855,218.451 385.611,217.557 386.230 L 215.931 387.356 214.528 385.778 L 213.124 384.200 214.396 385.900 C 215.095 386.835,215.816 387.600,215.998 387.600 C 216.374 387.600,220.400 384.482,220.400 384.191 C 220.400 383.850,220.107 383.989,219.640 384.552 M331.378 386.835 C 331.231 387.074,330.770 387.181,330.354 387.072 C 329.939 386.964,329.700 387.038,329.823 387.237 C 330.164 387.789,331.043 387.671,331.600 387.000 C 331.874 386.670,331.997 386.400,331.873 386.400 C 331.749 386.400,331.526 386.596,331.378 386.835 " stroke="none" fill="#747474" fill-rule="evenodd"></path><path id="path4" d="M123.791 118.200 C 123.791 137.120,123.840 144.801,123.900 135.270 C 123.960 125.738,123.960 110.258,123.900 100.870 C 123.840 91.481,123.791 99.280,123.791 118.200 M235.774 142.800 C 235.774 148.410,235.830 150.705,235.899 147.900 C 235.968 145.095,235.968 140.505,235.899 137.700 C 235.830 134.895,235.774 137.190,235.774 142.800 M127.061 159.500 C 126.892 159.773,138.765 159.767,153.000 159.487 C 156.080 159.426,151.546 159.337,142.924 159.288 C 134.302 159.240,127.164 159.335,127.061 159.500 M239.467 159.467 C 239.320 159.613,239.203 159.928,239.206 160.167 C 239.210 160.427,239.338 160.403,239.527 160.105 C 239.766 159.728,243.532 159.583,255.221 159.500 L 270.600 159.390 255.167 159.295 C 246.678 159.243,239.613 159.320,239.467 159.467 M253.500 259.898 C 255.535 259.971,258.865 259.971,260.900 259.898 C 262.935 259.825,261.270 259.766,257.200 259.766 C 253.130 259.766,251.465 259.825,253.500 259.898 M279.381 295.800 C 279.381 304.160,279.434 307.637,279.499 303.526 C 279.564 299.416,279.564 292.576,279.500 288.326 C 279.435 284.077,279.382 287.440,279.381 295.800 M193.791 324.600 C 193.791 343.300,193.840 350.892,193.900 341.470 C 193.960 332.049,193.960 316.749,193.900 307.470 C 193.840 298.192,193.791 305.900,193.791 324.600 M95.361 322.958 C 95.243 323.265,95.208 324.210,95.283 325.058 C 95.410 326.487,95.434 326.446,95.610 324.500 C 95.804 322.356,95.741 321.967,95.361 322.958 M181.590 324.319 L 181.783 326.200 181.919 324.647 C 181.993 323.793,181.907 322.947,181.726 322.766 C 181.545 322.585,181.484 323.284,181.590 324.319 M375.193 324.519 L 375.385 326.600 375.518 324.846 C 375.591 323.881,375.505 322.944,375.326 322.765 C 375.147 322.585,375.087 323.375,375.193 324.519 M30.900 327.100 C 39.205 327.160,52.795 327.160,61.100 327.100 C 69.405 327.039,62.610 326.990,46.000 326.990 C 29.390 326.990,22.595 327.039,30.900 327.100 M99.200 327.077 C 106.549 327.363,114.309 327.374,114.139 327.100 C 114.037 326.935,109.958 326.836,105.076 326.880 C 100.194 326.925,97.550 327.013,99.200 327.077 M167.500 327.099 C 169.975 327.169,174.025 327.169,176.500 327.099 C 178.975 327.028,176.950 326.971,172.000 326.971 C 167.050 326.971,165.025 327.028,167.500 327.099 M234.200 327.078 C 242.122 327.364,249.509 327.374,249.339 327.100 C 249.237 326.935,245.068 326.837,240.076 326.881 C 235.084 326.926,232.440 327.015,234.200 327.078 M314.662 327.100 C 314.493 327.372,335.647 327.369,363.800 327.093 C 369.740 327.034,361.156 326.945,344.724 326.893 C 328.292 326.842,314.764 326.935,314.662 327.100 M279.382 353.200 C 279.382 361.670,279.435 365.135,279.499 360.900 C 279.564 356.665,279.564 349.735,279.499 345.500 C 279.435 341.265,279.382 344.730,279.382 353.200 M64.166 381.745 C 64.051 382.044,64.014 383.349,64.084 384.645 L 64.212 387.000 64.406 384.099 C 64.601 381.188,64.554 380.733,64.166 381.745 M114.759 386.121 C 114.936 386.297,116.233 386.385,117.641 386.316 L 120.200 386.191 117.318 385.995 C 115.733 385.888,114.581 385.944,114.759 386.121 M158.291 386.289 C 159.001 386.377,160.261 386.379,161.091 386.292 C 161.921 386.205,161.340 386.133,159.800 386.131 C 158.260 386.129,157.581 386.200,158.291 386.289 M73.400 387.200 L 64.600 387.424 73.276 387.512 C 78.726 387.567,82.045 387.451,82.200 387.200 C 82.336 386.980,82.392 386.840,82.324 386.888 C 82.256 386.937,78.240 387.077,73.400 387.200 " stroke="none" fill="#7d7c7c" fill-rule="evenodd"></path></g></svg>