<?xml version="1.0" encoding="UTF-8" standalone="no"?>
<!-- Created with Inkscape (http://www.inkscape.org/) -->

<svg
   width="793.70099"
   height="800"
   viewBox="0 0 210.00005 211.66667"
   version="1.1"
   id="svg1"
   inkscape:version="1.3.2 (091e20e, 2023-11-25, custom)"
   sodipodi:docname="slogo.svg"
   xmlns:inkscape="http://www.inkscape.org/namespaces/inkscape"
   xmlns:sodipodi="http://sodipodi.sourceforge.net/DTD/sodipodi-0.dtd"
   xmlns="http://www.w3.org/2000/svg"
   xmlns:svg="http://www.w3.org/2000/svg">
  <sodipodi:namedview
     id="namedview1"
     pagecolor="#ffffff"
     bordercolor="#000000"
     borderopacity="0.25"
     inkscape:showpageshadow="2"
     inkscape:pageopacity="0.0"
     inkscape:pagecheckerboard="0"
     inkscape:deskcolor="#d1d1d1"
     inkscape:document-units="mm"
     inkscape:zoom="0.73139029"
     inkscape:cx="397.18876"
     inkscape:cy="439.57379"
     inkscape:window-width="1920"
     inkscape:window-height="1017"
     inkscape:window-x="-8"
     inkscape:window-y="-8"
     inkscape:window-maximized="1"
     inkscape:current-layer="layer1" />
  <defs
     id="defs1" />
  <g
     inkscape:label="Layer 1"
     inkscape:groupmode="layer"
     id="layer1">
    <path
       d="m 34.512012,129.76092 h 6.787839 v -3.34955 H 31.16247 v 19.00191 l 7.597592,14.62325 H 5.6800373 v 2.51215 H 39.625085 v 30.18184 h -6.787839 v 3.34953 h 10.137365 v -35.19691 l -8.462599,-16.28882 v -14.8334"
       style="fill:#140e0c;fill-opacity:1;fill-rule:nonzero;stroke:none;stroke-width:0.0837389"
       id="path418" />
    <path
       d="m 76.835923,126.41137 h -6.191622 l -9.618196,33.62516 H 50.182812 v 2.51215 h 10.551049 v 32.88407 h 3.349541 v -33.90569 l 9.087285,-31.76614 h 1.195786 l 9.850149,31.78542 v 33.88641 h 3.349541 V 162.54868 H 98.11637 v -2.51215 H 87.255497 L 76.835923,126.41137"
       style="fill:#140e0c;fill-opacity:1;fill-rule:nonzero;stroke:none;stroke-width:0.0837389"
       id="path420" />
    <path
       d="m 119.68236,127.91113 -2.67544,-2.0156 -12.20991,16.21259 v 38.12025 l 12.20991,16.2126 2.67544,-2.0156 -11.53581,-15.31742 v -35.87941 l 11.53581,-15.31741"
       style="fill:#140e0c;fill-opacity:1;fill-rule:nonzero;stroke:none;stroke-width:0.0837389"
       id="path422" />
    <path
       d="m 148.90623,152.69183 -5.36177,8.32023 5.36177,8.55139 v 15.12315 l -6.28707,9.07139 h -3.55639 V 128.5785 h 3.548 l 6.29546,9.22296 z m -13.19298,-27.46286 v 34.80756 h -10.55021 v 2.51215 h 10.55021 v 34.55885 h 8.65938 l 7.88314,-11.37337 v -17.1337 l -4.74211,-7.56411 4.74211,-7.35808 v -16.91014 l -7.87476,-11.53916 h -8.66776"
       style="fill:#140e0c;fill-opacity:1;fill-rule:nonzero;stroke:none;stroke-width:0.0837389"
       id="path424" />
    <path
       d="m 205.68004,162.54868 v -2.51215 h -33.94506 v -16.80799 l 11.53667,-15.31741 -2.67544,-2.0156 -12.21075,16.21259 v 38.12025 l 12.21075,16.2126 2.67544,-2.0156 -11.53667,-15.31742 v -16.55927 h 33.94506"
       style="fill:#140e0c;fill-opacity:1;fill-rule:nonzero;stroke:none;stroke-width:0.0837389"
       id="path426" />
    <path
       d="M 61.273011,96.406214 79.274263,69.474268 H 61.273011 Z"
       style="fill:#140e0c;fill-opacity:1;fill-rule:nonzero;stroke:none;stroke-width:0.0837389"
       id="path428" />
    <path
       d="M 141.43578,96.406214 123.43369,69.474268 h 18.00209 z"
       style="fill:#140e0c;fill-opacity:1;fill-rule:nonzero;stroke:none;stroke-width:0.0837389"
       id="path430" />
    <path
       d="m 99.330426,21.122869 h 4.077214 l 23.60084,-5.0712 H 75.729621 l 23.600805,5.0712"
       style="fill:#140e0c;fill-opacity:1;fill-rule:nonzero;stroke:none;stroke-width:0.0837389"
       id="path432" />
    <path
       d="m 143.15577,27.102625 h -10.14239 l -11.29632,27.726636 v 11.184103 h 21.43535 l 0.003,-38.910739"
       style="fill:#140e0c;fill-opacity:1;fill-rule:nonzero;stroke:none;stroke-width:0.0837389"
       id="path434" />
    <path
       d="M 63.422578,96.406214 H 79.274263 V 72.690648 Z"
       style="fill:#140e0c;fill-opacity:1;fill-rule:nonzero;stroke:none;stroke-width:0.0837389"
       id="path436" />
    <path
       d="m 123.43452,72.690648 v 23.715566 h 15.85086 z"
       style="fill:#140e0c;fill-opacity:1;fill-rule:nonzero;stroke:none;stroke-width:0.0837389"
       id="path438" />
    <path
       d="m 131.91052,25.072817 -4.01273,-7.384061 -23.60085,5.071195 16.31727,30.038643 11.29631,-27.725777"
       style="fill:#140e0c;fill-opacity:1;fill-rule:nonzero;stroke:none;stroke-width:0.0837389"
       id="path440" />
    <path
       d="M 81.021055,54.829261 69.723897,27.102625 H 59.582336 v 0.0032 l 0.0027,38.907387 H 81.021213 V 54.829167"
       style="fill:#140e0c;fill-opacity:1;fill-rule:nonzero;stroke:none;stroke-width:0.0837389"
       id="path442" />
    <path
       d="m 70.827576,25.072817 11.296311,27.725777 16.317242,-30.038643 -23.086663,-4.96066 -0.514153,-0.110533 -4.012737,7.38406"
       style="fill:#140e0c;fill-opacity:1;fill-rule:nonzero;stroke:none;stroke-width:0.0837389"
       id="path444" />
  </g>
</svg>
